{"glyphs":{"0":{"ha":949,"x_min":78,"x_max":871,"o":"m 475 -17 q 269 47 360 -17 q 128 222 179 110 q 78 478 78 335 q 128 733 78 621 q 269 908 179 844 q 475 971 360 971 q 679 908 589 971 q 820 733 769 844 q 871 478 871 621 q 820 222 871 335 q 680 47 769 110 q 475 -17 590 -17 m 475 83 q 624 134 558 83 q 725 274 689 185 q 761 478 761 364 q 725 681 761 592 q 624 821 689 771 q 475 871 558 871 q 326 821 392 871 q 224 681 261 771 q 188 478 188 592 q 224 274 188 364 q 326 134 261 185 q 475 83 392 83 z "},"1":{"ha":496,"x_min":65,"x_max":388,"o":"m 279 822 l 113 714 l 65 794 l 300 954 l 388 954 l 388 0 l 279 0 l 279 822 z "},"2":{"ha":804,"x_min":69,"x_max":728,"o":"m 418 388 q 563 545 518 474 q 608 689 608 617 q 581 787 608 744 q 507 851 553 829 q 410 874 461 874 q 269 835 331 874 q 154 725 207 796 l 78 788 q 414 971 207 971 q 567 936 497 971 q 677 838 636 901 q 718 690 718 774 q 666 509 718 594 q 493 319 614 424 l 243 103 l 728 103 l 728 0 l 69 0 l 69 90 l 418 388 z "},"3":{"ha":819,"x_min":65,"x_max":744,"o":"m 413 -17 q 210 28 300 -17 q 65 147 121 74 l 140 218 q 258 118 189 154 q 413 82 328 82 q 574 132 513 82 q 635 264 635 182 q 569 390 635 347 q 389 433 504 433 l 288 433 l 288 533 l 390 532 q 551 576 489 531 q 614 700 614 621 q 553 824 614 775 q 403 872 493 872 q 268 838 328 872 q 154 738 208 803 l 82 803 q 408 971 208 971 q 570 938 499 971 q 683 847 642 906 q 724 713 724 788 q 672 569 724 626 q 539 489 619 513 q 684 411 624 469 q 744 258 744 353 q 703 117 744 179 q 585 19 661 54 q 413 -17 510 -17 z "},"4":{"ha":876,"x_min":67,"x_max":808,"o":"m 557 232 l 81 232 l 67 322 l 540 954 l 665 954 l 665 331 l 808 331 l 808 232 l 665 232 l 665 0 l 557 0 l 557 232 m 557 331 l 557 824 l 190 331 l 557 331 z "},"5":{"ha":811,"x_min":64,"x_max":739,"o":"m 400 -17 q 210 24 294 -17 q 64 135 126 64 l 135 214 q 404 81 257 81 q 521 108 469 81 q 601 185 572 136 q 629 293 629 233 q 565 442 629 385 q 401 499 501 499 q 189 425 288 499 l 110 464 l 124 954 l 688 954 l 688 851 l 229 851 l 219 531 q 424 594 314 594 q 583 559 511 594 q 697 456 654 524 q 739 297 739 389 q 695 133 739 204 q 574 22 651 61 q 400 -17 497 -17 z "},"6":{"ha":849,"x_min":78,"x_max":776,"o":"m 457 596 q 617 560 544 596 q 733 458 690 525 q 776 299 776 390 q 733 139 776 211 q 614 25 690 67 q 440 -17 538 -17 q 167 115 256 -17 q 78 463 78 246 q 129 719 78 603 q 269 903 181 836 q 464 971 357 971 q 613 942 547 971 q 735 857 678 913 l 675 772 q 575 847 625 821 q 461 872 525 872 q 324 817 386 872 q 224 669 261 763 q 188 463 188 575 l 188 450 q 302 558 232 519 q 457 596 372 596 m 439 76 q 559 108 507 76 q 639 189 611 139 q 667 293 667 239 q 601 446 667 389 q 438 503 536 503 q 283 453 347 503 q 200 325 218 404 q 283 144 222 211 q 439 76 343 76 z "},"7":{"ha":782,"x_min":68,"x_max":714,"o":"m 585 851 l 68 851 l 68 954 l 714 954 l 714 872 l 303 0 l 178 0 l 585 851 z "},"8":{"ha":844,"x_min":74,"x_max":771,"o":"m 422 -17 q 244 17 324 -17 q 119 110 165 50 q 74 250 74 171 q 133 400 74 336 q 285 493 192 464 q 149 583 199 526 q 99 718 99 639 q 144 852 99 794 q 263 940 189 910 q 422 971 338 971 q 583 940 508 971 q 702 851 657 908 q 747 717 747 793 q 695 579 747 635 q 561 493 643 524 q 712 399 653 463 q 771 250 771 335 q 725 110 771 171 q 599 17 679 50 q 422 -17 519 -17 m 422 536 q 522 560 472 539 q 605 618 572 581 q 638 707 638 656 q 609 792 638 754 q 531 851 581 829 q 422 872 482 872 q 270 825 332 872 q 208 707 208 778 q 242 617 208 654 q 324 559 275 579 q 422 536 374 539 m 422 82 q 542 104 488 82 q 629 166 597 126 q 661 257 661 206 q 624 353 661 311 q 531 417 586 394 q 422 442 475 440 q 314 417 369 440 q 221 353 258 394 q 183 257 183 311 q 215 166 183 206 q 302 104 247 126 q 422 82 357 82 z "},"9":{"ha":849,"x_min":72,"x_max":771,"o":"m 408 971 q 682 840 593 971 q 771 492 771 708 q 719 235 771 351 q 580 51 668 118 q 385 -17 492 -17 q 236 13 301 -17 q 114 97 171 42 l 174 182 q 274 108 224 133 q 388 82 324 82 q 525 137 463 82 q 624 285 588 192 q 661 492 661 379 l 661 504 q 547 397 617 435 q 392 358 476 358 q 231 394 304 358 q 115 497 158 429 q 72 656 72 564 q 115 815 72 743 q 235 929 158 888 q 408 971 311 971 m 411 451 q 566 501 501 451 q 649 629 631 550 q 566 810 626 743 q 410 878 506 878 q 290 847 342 878 q 210 765 238 815 q 182 661 182 715 q 247 508 182 565 q 411 451 313 451 z "}," ":{"ha":382,"x_min":0,"x_max":0,"o":""},"A":{"ha":1090,"x_min":65,"x_max":1025,"o":"m 907 0 l 811 217 l 279 217 l 183 0 l 65 0 l 486 954 l 604 954 l 1025 0 l 907 0 m 324 319 l 767 319 l 546 821 l 324 319 z "},"Á":{"ha":1090,"x_min":65,"x_max":1025,"o":"m 907 0 l 811 217 l 279 217 l 183 0 l 65 0 l 486 954 l 604 954 l 1025 0 l 907 0 m 324 319 l 767 319 l 546 821 l 324 319 m 672 1236 l 782 1211 l 585 1036 l 504 1036 l 672 1236 z "},"Ă":{"ha":1090,"x_min":65,"x_max":1025,"o":"m 907 0 l 811 217 l 279 217 l 183 0 l 65 0 l 486 954 l 604 954 l 1025 0 l 907 0 m 324 319 l 767 319 l 546 821 l 324 319 m 546 1054 q 438 1075 490 1054 q 343 1138 385 1096 l 408 1203 q 473 1160 436 1175 q 546 1144 510 1144 q 619 1160 582 1144 q 683 1203 656 1175 l 749 1138 q 656 1076 708 1097 q 546 1054 603 1054 z "},"Â":{"ha":1090,"x_min":65,"x_max":1025,"o":"m 907 0 l 811 217 l 279 217 l 183 0 l 65 0 l 486 954 l 604 954 l 1025 0 l 907 0 m 324 319 l 767 319 l 546 821 l 324 319 m 497 1226 l 594 1226 l 736 1036 l 656 1036 l 546 1156 l 438 1036 l 358 1036 l 497 1226 z "},"Ä":{"ha":1090,"x_min":65,"x_max":1025,"o":"m 907 0 l 811 217 l 279 217 l 183 0 l 65 0 l 486 954 l 604 954 l 1025 0 l 907 0 m 324 319 l 767 319 l 546 821 l 324 319 m 413 1065 q 367 1084 386 1065 q 349 1129 349 1103 q 367 1174 349 1154 q 413 1193 386 1193 q 458 1174 439 1193 q 476 1129 476 1154 q 458 1084 476 1103 q 413 1065 439 1065 m 679 1065 q 634 1084 653 1065 q 615 1129 615 1103 q 634 1174 615 1154 q 679 1193 653 1193 q 724 1174 706 1193 q 743 1129 743 1154 q 724 1084 743 1103 q 679 1065 706 1065 z "},"À":{"ha":1090,"x_min":65,"x_max":1025,"o":"m 907 0 l 811 217 l 279 217 l 183 0 l 65 0 l 486 954 l 604 954 l 1025 0 l 907 0 m 324 319 l 767 319 l 546 821 l 324 319 m 308 1211 l 418 1236 l 586 1036 l 506 1036 l 308 1211 z "},"Ā":{"ha":1090,"x_min":65,"x_max":1025,"o":"m 907 0 l 811 217 l 279 217 l 183 0 l 65 0 l 486 954 l 604 954 l 1025 0 l 907 0 m 324 319 l 767 319 l 546 821 l 324 319 m 331 1138 l 761 1138 l 761 1061 l 331 1061 l 331 1138 z "},"Ą":{"ha":1090,"x_min":65,"x_max":1135,"o":"m 1135 -200 q 1018 -240 1086 -240 q 908 -201 950 -240 q 867 -92 867 -161 q 906 3 867 -36 l 811 217 l 279 217 l 183 0 l 65 0 l 486 954 l 604 954 l 1025 0 q 967 -22 990 0 q 944 -79 944 -44 q 966 -137 944 -117 q 1025 -158 988 -158 q 1090 -132 1067 -158 l 1135 -200 m 324 319 l 767 319 l 546 821 l 324 319 z "},"Å":{"ha":1090,"x_min":65,"x_max":1025,"o":"m 907 0 l 811 217 l 279 217 l 183 0 l 65 0 l 486 954 l 604 954 l 1025 0 l 907 0 m 324 319 l 767 319 l 546 821 l 324 319 m 546 1054 q 444 1096 486 1054 q 403 1197 403 1138 q 444 1299 403 1257 q 546 1340 486 1340 q 647 1299 606 1340 q 689 1197 689 1257 q 647 1096 689 1138 q 546 1054 606 1054 m 546 1115 q 603 1140 579 1115 q 628 1197 628 1164 q 603 1255 628 1231 q 546 1279 579 1279 q 488 1255 513 1279 q 464 1197 464 1231 q 488 1140 464 1164 q 546 1115 513 1115 z "},"Ã":{"ha":1090,"x_min":65,"x_max":1025,"o":"m 907 0 l 811 217 l 279 217 l 183 0 l 65 0 l 486 954 l 604 954 l 1025 0 l 907 0 m 324 319 l 767 319 l 546 821 l 324 319 m 635 1035 q 584 1047 606 1035 q 528 1086 563 1060 q 489 1117 504 1107 q 456 1126 474 1126 q 411 1104 428 1126 q 386 1032 394 1082 l 322 1042 q 456 1207 344 1207 q 506 1194 485 1207 q 563 1156 528 1182 q 601 1125 586 1135 q 635 1115 617 1115 q 679 1138 663 1115 q 704 1210 696 1160 l 768 1200 q 635 1035 746 1035 z "},"Æ":{"ha":1440,"x_min":64,"x_max":1365,"o":"m 614 954 l 1365 954 l 1365 851 l 790 851 l 790 538 l 1308 538 l 1308 435 l 790 435 l 790 103 l 1365 103 l 1365 0 l 681 0 l 681 217 l 314 217 l 189 0 l 64 0 l 614 954 m 681 319 l 681 851 l 374 319 l 681 319 z "},"B":{"ha":918,"x_min":108,"x_max":846,"o":"m 546 954 q 682 924 622 954 q 775 839 742 893 q 808 717 808 785 q 774 596 808 644 q 672 507 740 547 q 801 402 756 465 q 846 261 846 339 q 810 126 846 186 q 709 33 774 67 q 563 0 644 0 l 108 0 l 108 954 l 546 954 m 518 550 q 648 593 597 550 q 699 703 699 636 q 648 813 699 769 q 518 856 597 856 l 217 856 l 217 550 l 518 550 m 535 99 q 680 148 624 99 q 736 275 736 197 q 680 402 736 353 q 535 451 624 451 l 217 451 l 217 99 l 535 99 z "},"C":{"ha":974,"x_min":75,"x_max":907,"o":"m 564 -17 q 322 51 435 -17 q 142 232 208 118 q 75 478 75 346 q 142 723 75 610 q 322 903 208 836 q 564 971 435 971 q 750 933 661 971 q 907 825 839 894 l 833 750 q 710 839 781 807 q 564 871 640 871 q 376 817 463 871 q 237 673 289 764 q 185 478 185 582 q 237 282 185 372 q 376 138 289 192 q 564 83 463 83 q 710 115 640 83 q 833 204 781 147 l 907 129 q 750 22 839 61 q 564 -17 661 -17 z "},"Ć":{"ha":974,"x_min":75,"x_max":907,"o":"m 564 -17 q 322 51 435 -17 q 142 232 208 118 q 75 478 75 346 q 142 723 75 610 q 322 903 208 836 q 564 971 435 971 q 750 933 661 971 q 907 825 839 894 l 833 750 q 710 839 781 807 q 564 871 640 871 q 376 817 463 871 q 237 673 289 764 q 185 478 185 582 q 237 282 185 372 q 376 138 289 192 q 564 83 463 83 q 710 115 640 83 q 833 204 781 147 l 907 129 q 750 22 839 61 q 564 -17 661 -17 m 690 1236 l 800 1211 l 603 1036 l 522 1036 l 690 1236 z "},"Č":{"ha":974,"x_min":75,"x_max":907,"o":"m 564 -17 q 322 51 435 -17 q 142 232 208 118 q 75 478 75 346 q 142 723 75 610 q 322 903 208 836 q 564 971 435 971 q 750 933 661 971 q 907 825 839 894 l 833 750 q 710 839 781 807 q 564 871 640 871 q 376 817 463 871 q 237 673 289 764 q 185 478 185 582 q 237 282 185 372 q 376 138 289 192 q 564 83 463 83 q 710 115 640 83 q 833 204 781 147 l 907 129 q 750 22 839 61 q 564 -17 661 -17 m 376 1226 l 456 1226 l 564 1107 l 674 1226 l 754 1226 l 613 1036 l 515 1036 l 376 1226 z "},"Ç":{"ha":974,"x_min":75,"x_max":907,"o":"m 907 129 q 762 28 843 65 q 592 -15 681 -10 l 571 -64 q 586 -62 576 -62 q 655 -88 628 -62 q 682 -154 682 -114 q 643 -235 682 -204 q 546 -267 604 -267 q 478 -256 511 -267 q 424 -228 446 -244 l 450 -169 q 540 -201 490 -201 q 590 -187 571 -201 q 610 -149 610 -172 q 596 -115 610 -128 q 556 -101 582 -101 q 508 -117 528 -101 l 486 -93 l 519 -14 q 297 67 399 -3 q 135 245 194 136 q 75 478 75 354 q 142 723 75 610 q 322 903 208 836 q 564 971 435 971 q 750 933 661 971 q 907 825 839 894 l 833 750 q 710 839 781 807 q 564 871 640 871 q 376 817 463 871 q 237 673 289 764 q 185 478 185 582 q 237 282 185 372 q 376 138 289 192 q 564 83 463 83 q 710 115 640 83 q 833 204 781 147 l 907 129 z "},"D":{"ha":1022,"x_min":108,"x_max":947,"o":"m 431 954 q 698 893 581 954 q 881 724 815 832 q 947 478 947 615 q 881 231 947 340 q 698 61 815 122 q 431 0 581 0 l 108 0 l 108 954 l 431 954 m 431 99 q 641 147 549 99 q 785 282 733 196 q 838 478 838 368 q 785 673 838 588 q 641 807 733 758 q 431 856 549 856 l 217 856 l 217 99 l 431 99 z "},"Ð":{"ha":1056,"x_min":68,"x_max":981,"o":"m 464 954 q 731 893 614 954 q 915 724 849 832 q 981 478 981 615 q 915 231 981 340 q 731 61 849 122 q 464 0 614 0 l 142 0 l 142 435 l 68 435 l 68 538 l 142 538 l 142 954 l 464 954 m 464 99 q 674 147 582 99 q 819 282 767 196 q 871 478 871 368 q 819 673 871 588 q 674 807 767 758 q 464 856 582 856 l 250 856 l 250 538 l 553 538 l 551 435 l 250 435 l 250 99 l 464 99 z "},"Ď":{"ha":1022,"x_min":108,"x_max":947,"o":"m 431 954 q 698 893 581 954 q 881 724 815 832 q 947 478 947 615 q 881 231 947 340 q 698 61 815 122 q 431 0 581 0 l 108 0 l 108 954 l 431 954 m 431 99 q 641 147 549 99 q 785 282 733 196 q 838 478 838 368 q 785 673 838 588 q 641 807 733 758 q 431 856 549 856 l 217 856 l 217 99 l 431 99 m 243 1226 l 322 1226 l 431 1107 l 540 1226 l 621 1226 l 479 1036 l 382 1036 l 243 1226 z "},"Đ":{"ha":1056,"x_min":68,"x_max":981,"o":"m 464 954 q 731 893 614 954 q 915 724 849 832 q 981 478 981 615 q 915 231 981 340 q 731 61 849 122 q 464 0 614 0 l 142 0 l 142 435 l 68 435 l 68 538 l 142 538 l 142 954 l 464 954 m 464 99 q 674 147 582 99 q 819 282 767 196 q 871 478 871 368 q 819 673 871 588 q 674 807 767 758 q 464 856 582 856 l 250 856 l 250 538 l 553 538 l 551 435 l 250 435 l 250 99 l 464 99 z "},"E":{"ha":868,"x_min":108,"x_max":793,"o":"m 793 851 l 218 851 l 218 538 l 736 538 l 736 435 l 218 435 l 218 103 l 793 103 l 793 0 l 108 0 l 108 954 l 793 954 l 793 851 z "},"É":{"ha":868,"x_min":108,"x_max":793,"o":"m 793 851 l 218 851 l 218 538 l 736 538 l 736 435 l 218 435 l 218 103 l 793 103 l 793 0 l 108 0 l 108 954 l 793 954 l 793 851 m 578 1236 l 688 1211 l 490 1036 l 410 1036 l 578 1236 z "},"Ě":{"ha":868,"x_min":108,"x_max":793,"o":"m 793 851 l 218 851 l 218 538 l 736 538 l 736 435 l 218 435 l 218 103 l 793 103 l 793 0 l 108 0 l 108 954 l 793 954 l 793 851 m 264 1226 l 343 1226 l 451 1107 l 561 1226 l 642 1226 l 500 1036 l 403 1036 l 264 1226 z "},"Ê":{"ha":868,"x_min":108,"x_max":793,"o":"m 793 851 l 218 851 l 218 538 l 736 538 l 736 435 l 218 435 l 218 103 l 793 103 l 793 0 l 108 0 l 108 954 l 793 954 l 793 851 m 403 1226 l 500 1226 l 642 1036 l 561 1036 l 451 1156 l 343 1036 l 264 1036 l 403 1226 z "},"Ë":{"ha":868,"x_min":108,"x_max":793,"o":"m 793 851 l 218 851 l 218 538 l 736 538 l 736 435 l 218 435 l 218 103 l 793 103 l 793 0 l 108 0 l 108 954 l 793 954 l 793 851 m 318 1065 q 273 1084 292 1065 q 254 1129 254 1103 q 273 1174 254 1154 q 318 1193 292 1193 q 363 1174 344 1193 q 382 1129 382 1154 q 363 1084 382 1103 q 318 1065 344 1065 m 585 1065 q 540 1084 558 1065 q 521 1129 521 1103 q 540 1174 521 1154 q 585 1193 558 1193 q 630 1174 611 1193 q 649 1129 649 1154 q 630 1084 649 1103 q 585 1065 611 1065 z "},"Ė":{"ha":868,"x_min":108,"x_max":793,"o":"m 793 851 l 218 851 l 218 538 l 736 538 l 736 435 l 218 435 l 218 103 l 793 103 l 793 0 l 108 0 l 108 954 l 793 954 l 793 851 m 451 1065 q 406 1084 425 1065 q 388 1129 388 1103 q 406 1174 388 1154 q 451 1193 425 1193 q 497 1174 478 1193 q 515 1129 515 1154 q 497 1084 515 1103 q 451 1065 478 1065 z "},"Ẹ":{"ha":867,"x_min":107,"x_max":792,"o":"m 451 -239 q 406 -220 425 -239 q 388 -175 388 -201 q 406 -131 388 -150 q 451 -111 425 -111 q 497 -131 478 -111 q 515 -175 515 -150 q 497 -220 515 -201 q 451 -239 478 -239 m 792 851 l 217 851 l 217 538 l 735 538 l 735 435 l 217 435 l 217 103 l 792 103 l 792 0 l 107 0 l 107 954 l 792 954 l 792 851 z "},"È":{"ha":868,"x_min":108,"x_max":793,"o":"m 793 851 l 218 851 l 218 538 l 736 538 l 736 435 l 218 435 l 218 103 l 793 103 l 793 0 l 108 0 l 108 954 l 793 954 l 793 851 m 214 1211 l 324 1236 l 492 1036 l 411 1036 l 214 1211 z "},"Ē":{"ha":868,"x_min":108,"x_max":793,"o":"m 793 851 l 218 851 l 218 538 l 736 538 l 736 435 l 218 435 l 218 103 l 793 103 l 793 0 l 108 0 l 108 954 l 793 954 l 793 851 m 236 1138 l 667 1138 l 667 1061 l 236 1061 l 236 1138 z "},"Ę":{"ha":868,"x_min":108,"x_max":903,"o":"m 903 -200 q 786 -240 854 -240 q 676 -201 718 -240 q 635 -92 635 -161 q 671 0 635 -40 l 108 0 l 108 954 l 793 954 l 793 851 l 218 851 l 218 538 l 736 538 l 736 435 l 218 435 l 218 103 l 793 103 l 793 0 q 735 -22 758 0 q 713 -79 713 -44 q 734 -137 713 -117 q 793 -158 756 -158 q 858 -132 835 -158 l 903 -200 z "},"Ẽ":{"ha":868,"x_min":108,"x_max":793,"o":"m 793 851 l 218 851 l 218 538 l 736 538 l 736 435 l 218 435 l 218 103 l 793 103 l 793 0 l 108 0 l 108 954 l 793 954 l 793 851 m 540 1035 q 490 1047 511 1035 q 433 1086 468 1060 q 394 1117 410 1107 q 361 1126 379 1126 q 317 1104 333 1126 q 292 1032 300 1082 l 228 1042 q 361 1207 250 1207 q 412 1194 390 1207 q 468 1156 433 1182 q 507 1125 492 1135 q 540 1115 522 1115 q 585 1138 568 1115 q 610 1210 601 1160 l 674 1200 q 540 1035 651 1035 z "},"F":{"ha":861,"x_min":108,"x_max":793,"o":"m 793 851 l 218 851 l 218 538 l 736 538 l 736 435 l 218 435 l 218 0 l 108 0 l 108 954 l 793 954 l 793 851 z "},"G":{"ha":1018,"x_min":75,"x_max":935,"o":"m 553 503 l 935 503 l 935 129 q 766 23 868 63 q 564 -17 664 -17 q 322 51 435 -17 q 142 232 208 118 q 75 478 75 346 q 142 723 75 610 q 322 903 208 836 q 564 971 435 971 q 767 931 664 971 q 935 825 869 892 l 861 750 q 726 838 810 804 q 564 871 643 871 q 376 817 463 871 q 237 673 289 764 q 185 478 185 582 q 237 282 185 372 q 376 138 289 192 q 564 83 463 83 q 702 108 631 83 q 826 172 774 132 l 826 400 l 553 400 l 553 503 z "},"Ğ":{"ha":1018,"x_min":75,"x_max":935,"o":"m 553 503 l 935 503 l 935 129 q 766 23 868 63 q 564 -17 664 -17 q 322 51 435 -17 q 142 232 208 118 q 75 478 75 346 q 142 723 75 610 q 322 903 208 836 q 564 971 435 971 q 767 931 664 971 q 935 825 869 892 l 861 750 q 726 838 810 804 q 564 871 643 871 q 376 817 463 871 q 237 673 289 764 q 185 478 185 582 q 237 282 185 372 q 376 138 289 192 q 564 83 463 83 q 702 108 631 83 q 826 172 774 132 l 826 400 l 553 400 l 553 503 m 564 1054 q 456 1075 508 1054 q 361 1138 403 1096 l 426 1203 q 491 1160 454 1175 q 564 1144 528 1144 q 637 1160 600 1144 q 701 1203 674 1175 l 767 1138 q 674 1076 726 1097 q 564 1054 621 1054 z "},"Ģ":{"ha":1018,"x_min":75,"x_max":935,"o":"m 553 503 l 935 503 l 935 129 q 766 23 868 63 q 564 -17 664 -17 q 322 51 435 -17 q 142 232 208 118 q 75 478 75 346 q 142 723 75 610 q 322 903 208 836 q 564 971 435 971 q 767 931 664 971 q 935 825 869 892 l 861 750 q 726 838 810 804 q 564 871 643 871 q 376 817 463 871 q 237 673 289 764 q 185 478 185 582 q 237 282 185 372 q 376 138 289 192 q 564 83 463 83 q 702 108 631 83 q 826 172 774 132 l 826 400 l 553 400 l 553 503 m 501 -350 q 563 -240 550 -294 q 518 -222 536 -240 q 500 -176 500 -203 q 519 -133 500 -151 q 564 -114 538 -114 q 617 -140 597 -114 q 636 -208 636 -167 q 617 -279 636 -243 q 546 -382 599 -315 l 501 -350 z "},"H":{"ha":996,"x_min":108,"x_max":888,"o":"m 779 954 l 888 954 l 888 0 l 779 0 l 779 435 l 217 435 l 217 0 l 108 0 l 108 954 l 217 954 l 217 538 l 779 538 l 779 954 z "},"I":{"ha":325,"x_min":108,"x_max":217,"o":"m 108 954 l 217 954 l 217 0 l 108 0 l 108 954 z "},"Í":{"ha":325,"x_min":108,"x_max":399,"o":"m 108 954 l 217 954 l 217 0 l 108 0 l 108 954 m 289 1236 l 399 1211 l 201 1036 l 121 1036 l 289 1236 z "},"Î":{"ha":325,"x_min":-25,"x_max":353,"o":"m 108 954 l 217 954 l 217 0 l 108 0 l 108 954 m 114 1226 l 211 1226 l 353 1036 l 272 1036 l 163 1156 l 54 1036 l -25 1036 l 114 1226 z "},"Ï":{"ha":325,"x_min":-35,"x_max":360,"o":"m 108 954 l 217 954 l 217 0 l 108 0 l 108 954 m 29 1065 q -16 1084 3 1065 q -35 1129 -35 1103 q -16 1174 -35 1154 q 29 1193 3 1193 q 74 1174 56 1193 q 93 1129 93 1154 q 74 1084 93 1103 q 29 1065 56 1065 m 296 1065 q 251 1084 269 1065 q 232 1129 232 1103 q 251 1174 232 1154 q 296 1193 269 1193 q 341 1174 322 1193 q 360 1129 360 1154 q 341 1084 360 1103 q 296 1065 322 1065 z "},"İ":{"ha":325,"x_min":99,"x_max":226,"o":"m 108 954 l 217 954 l 217 0 l 108 0 l 108 954 m 163 1065 q 117 1084 136 1065 q 99 1129 99 1103 q 117 1174 99 1154 q 163 1193 136 1193 q 208 1174 189 1193 q 226 1129 226 1154 q 208 1084 226 1103 q 163 1065 189 1065 z "},"Ì":{"ha":325,"x_min":-75,"x_max":217,"o":"m 108 954 l 217 954 l 217 0 l 108 0 l 108 954 m -75 1211 l 35 1236 l 203 1036 l 122 1036 l -75 1211 z "},"Ī":{"ha":325,"x_min":-53,"x_max":378,"o":"m 108 954 l 217 954 l 217 0 l 108 0 l 108 954 m -53 1138 l 378 1138 l 378 1061 l -53 1061 l -53 1138 z "},"Į":{"ha":325,"x_min":58,"x_max":326,"o":"m 326 -200 q 210 -240 278 -240 q 100 -201 142 -240 q 58 -92 58 -161 q 72 -32 58 -60 q 108 13 86 -4 l 108 954 l 217 954 l 217 0 q 159 -22 182 0 q 136 -79 136 -44 q 158 -137 136 -117 q 217 -158 179 -158 q 282 -132 258 -158 l 326 -200 z "},"J":{"ha":757,"x_min":64,"x_max":658,"o":"m 357 -17 q 190 28 272 -17 q 64 142 107 72 l 143 219 q 231 121 171 160 q 357 82 292 82 q 496 146 442 82 q 550 311 550 210 l 550 954 l 658 954 l 658 311 q 620 142 658 217 q 513 25 582 67 q 357 -17 444 -17 z "},"K":{"ha":933,"x_min":108,"x_max":869,"o":"m 108 954 l 217 954 l 217 426 l 700 954 l 843 954 l 442 518 l 869 0 l 729 0 l 367 444 l 217 286 l 217 0 l 108 0 l 108 954 z "},"Ķ":{"ha":933,"x_min":108,"x_max":869,"o":"m 108 954 l 217 954 l 217 426 l 700 954 l 843 954 l 442 518 l 869 0 l 729 0 l 367 444 l 217 286 l 217 0 l 108 0 l 108 954 m 426 -350 q 488 -240 475 -294 q 443 -222 461 -240 q 425 -176 425 -203 q 444 -133 425 -151 q 489 -114 463 -114 q 542 -140 522 -114 q 561 -208 561 -167 q 542 -279 561 -243 q 471 -382 524 -315 l 426 -350 z "},"L":{"ha":806,"x_min":108,"x_max":738,"o":"m 217 103 l 738 103 l 738 0 l 108 0 l 108 954 l 217 954 l 217 103 z "},"Ĺ":{"ha":806,"x_min":108,"x_max":738,"o":"m 217 103 l 738 103 l 738 0 l 108 0 l 108 954 l 217 954 l 217 103 m 293 1236 l 403 1211 l 206 1036 l 125 1036 l 293 1236 z "},"Ľ":{"ha":806,"x_min":108,"x_max":738,"o":"m 217 103 l 738 103 l 738 0 l 108 0 l 108 954 l 217 954 l 217 103 m 318 735 q 379 844 367 790 q 335 863 353 844 q 317 908 317 882 q 335 952 317 933 q 381 971 354 971 q 433 944 414 971 q 453 876 453 918 q 434 806 453 842 q 363 703 415 769 l 318 735 z "},"Ł":{"ha":919,"x_min":68,"x_max":851,"o":"m 331 103 l 851 103 l 851 0 l 222 0 l 222 404 l 68 325 l 68 429 l 222 508 l 222 954 l 331 954 l 331 564 l 483 643 l 483 539 l 331 460 l 331 103 z "},"M":{"ha":1142,"x_min":108,"x_max":1033,"o":"m 108 954 l 217 954 l 571 289 l 925 954 l 1033 954 l 1033 0 l 925 0 l 925 721 l 571 56 l 217 721 l 217 0 l 108 0 l 108 954 z "},"N":{"ha":1025,"x_min":108,"x_max":917,"o":"m 108 954 l 217 954 l 808 178 l 808 954 l 917 954 l 917 0 l 808 0 l 217 776 l 217 0 l 108 0 l 108 954 z "},"Ń":{"ha":1025,"x_min":108,"x_max":917,"o":"m 108 954 l 217 954 l 808 178 l 808 954 l 917 954 l 917 0 l 808 0 l 217 776 l 217 0 l 108 0 l 108 954 m 639 1236 l 749 1211 l 551 1036 l 471 1036 l 639 1236 z "},"Ň":{"ha":1025,"x_min":108,"x_max":917,"o":"m 108 954 l 217 954 l 808 178 l 808 954 l 917 954 l 917 0 l 808 0 l 217 776 l 217 0 l 108 0 l 108 954 m 325 1226 l 404 1226 l 513 1107 l 622 1226 l 703 1226 l 561 1036 l 464 1036 l 325 1226 z "},"Ņ":{"ha":1025,"x_min":108,"x_max":917,"o":"m 108 954 l 217 954 l 808 178 l 808 954 l 917 954 l 917 0 l 808 0 l 217 776 l 217 0 l 108 0 l 108 954 m 450 -350 q 511 -240 499 -294 q 467 -222 485 -240 q 449 -176 449 -203 q 467 -133 449 -151 q 513 -114 486 -114 q 565 -140 546 -114 q 585 -208 585 -167 q 566 -279 585 -243 q 494 -382 547 -315 l 450 -350 z "},"Ñ":{"ha":1025,"x_min":108,"x_max":917,"o":"m 108 954 l 217 954 l 808 178 l 808 954 l 917 954 l 917 0 l 808 0 l 217 776 l 217 0 l 108 0 l 108 954 m 601 1035 q 551 1047 572 1035 q 494 1086 529 1060 q 456 1117 471 1107 q 422 1126 440 1126 q 378 1104 394 1126 q 353 1032 361 1082 l 289 1042 q 422 1207 311 1207 q 473 1194 451 1207 q 529 1156 494 1182 q 568 1125 553 1135 q 601 1115 583 1115 q 646 1138 629 1115 q 671 1210 663 1160 l 735 1200 q 601 1035 713 1035 z "},"O":{"ha":1126,"x_min":75,"x_max":1051,"o":"m 564 -17 q 322 51 435 -17 q 142 232 208 118 q 75 478 75 346 q 142 723 75 610 q 322 903 208 836 q 564 971 435 971 q 806 903 694 971 q 985 723 918 836 q 1051 478 1051 610 q 985 232 1051 346 q 806 51 918 118 q 564 -17 694 -17 m 564 83 q 752 138 665 83 q 890 282 839 192 q 942 478 942 372 q 890 673 942 582 q 752 817 839 764 q 564 871 665 871 q 376 817 463 871 q 237 673 289 764 q 185 478 185 582 q 237 282 185 372 q 376 138 289 192 q 564 83 463 83 z "},"Ó":{"ha":1126,"x_min":75,"x_max":1051,"o":"m 564 -17 q 322 51 435 -17 q 142 232 208 118 q 75 478 75 346 q 142 723 75 610 q 322 903 208 836 q 564 971 435 971 q 806 903 694 971 q 985 723 918 836 q 1051 478 1051 610 q 985 232 1051 346 q 806 51 918 118 q 564 -17 694 -17 m 564 83 q 752 138 665 83 q 890 282 839 192 q 942 478 942 372 q 890 673 942 582 q 752 817 839 764 q 564 871 665 871 q 376 817 463 871 q 237 673 289 764 q 185 478 185 582 q 237 282 185 372 q 376 138 289 192 q 564 83 463 83 m 690 1236 l 800 1211 l 603 1036 l 522 1036 l 690 1236 z "},"Ô":{"ha":1126,"x_min":75,"x_max":1051,"o":"m 564 -17 q 322 51 435 -17 q 142 232 208 118 q 75 478 75 346 q 142 723 75 610 q 322 903 208 836 q 564 971 435 971 q 806 903 694 971 q 985 723 918 836 q 1051 478 1051 610 q 985 232 1051 346 q 806 51 918 118 q 564 -17 694 -17 m 564 83 q 752 138 665 83 q 890 282 839 192 q 942 478 942 372 q 890 673 942 582 q 752 817 839 764 q 564 871 665 871 q 376 817 463 871 q 237 673 289 764 q 185 478 185 582 q 237 282 185 372 q 376 138 289 192 q 564 83 463 83 m 515 1226 l 613 1226 l 754 1036 l 674 1036 l 564 1156 l 456 1036 l 376 1036 l 515 1226 z "},"Ö":{"ha":1126,"x_min":75,"x_max":1051,"o":"m 564 -17 q 322 51 435 -17 q 142 232 208 118 q 75 478 75 346 q 142 723 75 610 q 322 903 208 836 q 564 971 435 971 q 806 903 694 971 q 985 723 918 836 q 1051 478 1051 610 q 985 232 1051 346 q 806 51 918 118 q 564 -17 694 -17 m 564 83 q 752 138 665 83 q 890 282 839 192 q 942 478 942 372 q 890 673 942 582 q 752 817 839 764 q 564 871 665 871 q 376 817 463 871 q 237 673 289 764 q 185 478 185 582 q 237 282 185 372 q 376 138 289 192 q 564 83 463 83 m 431 1065 q 385 1084 404 1065 q 367 1129 367 1103 q 385 1174 367 1154 q 431 1193 404 1193 q 476 1174 457 1193 q 494 1129 494 1154 q 476 1084 494 1103 q 431 1065 457 1065 m 697 1065 q 652 1084 671 1065 q 633 1129 633 1103 q 652 1174 633 1154 q 697 1193 671 1193 q 742 1174 724 1193 q 761 1129 761 1154 q 742 1084 761 1103 q 697 1065 724 1065 z "},"Ò":{"ha":1126,"x_min":75,"x_max":1051,"o":"m 564 -17 q 322 51 435 -17 q 142 232 208 118 q 75 478 75 346 q 142 723 75 610 q 322 903 208 836 q 564 971 435 971 q 806 903 694 971 q 985 723 918 836 q 1051 478 1051 610 q 985 232 1051 346 q 806 51 918 118 q 564 -17 694 -17 m 564 83 q 752 138 665 83 q 890 282 839 192 q 942 478 942 372 q 890 673 942 582 q 752 817 839 764 q 564 871 665 871 q 376 817 463 871 q 237 673 289 764 q 185 478 185 582 q 237 282 185 372 q 376 138 289 192 q 564 83 463 83 m 326 1211 l 436 1236 l 604 1036 l 524 1036 l 326 1211 z "},"Ő":{"ha":1126,"x_min":75,"x_max":1051,"o":"m 564 -17 q 322 51 435 -17 q 142 232 208 118 q 75 478 75 346 q 142 723 75 610 q 322 903 208 836 q 564 971 435 971 q 806 903 694 971 q 985 723 918 836 q 1051 478 1051 610 q 985 232 1051 346 q 806 51 918 118 q 564 -17 694 -17 m 564 83 q 752 138 665 83 q 890 282 839 192 q 942 478 942 372 q 890 673 942 582 q 752 817 839 764 q 564 871 665 871 q 376 817 463 871 q 237 673 289 764 q 185 478 185 582 q 237 282 185 372 q 376 138 289 192 q 564 83 463 83 m 550 1236 l 660 1211 l 463 1035 l 382 1035 l 550 1236 m 828 1233 l 938 1208 l 740 1035 l 660 1035 l 828 1233 z "},"Ō":{"ha":1126,"x_min":75,"x_max":1051,"o":"m 564 -17 q 322 51 435 -17 q 142 232 208 118 q 75 478 75 346 q 142 723 75 610 q 322 903 208 836 q 564 971 435 971 q 806 903 694 971 q 985 723 918 836 q 1051 478 1051 610 q 985 232 1051 346 q 806 51 918 118 q 564 -17 694 -17 m 564 83 q 752 138 665 83 q 890 282 839 192 q 942 478 942 372 q 890 673 942 582 q 752 817 839 764 q 564 871 665 871 q 376 817 463 871 q 237 673 289 764 q 185 478 185 582 q 237 282 185 372 q 376 138 289 192 q 564 83 463 83 m 349 1138 l 779 1138 l 779 1061 l 349 1061 l 349 1138 z "},"Ø":{"ha":1128,"x_min":76,"x_max":1053,"o":"m 917 817 q 1017 661 981 749 q 1053 478 1053 574 q 986 232 1053 346 q 808 51 919 118 q 565 -17 696 -17 q 412 10 486 -17 q 275 83 338 36 l 201 0 l 83 0 l 208 143 q 111 298 146 211 q 76 478 76 385 q 143 723 76 610 q 323 903 210 836 q 565 971 436 971 q 715 946 643 971 q 850 876 788 921 l 918 954 l 1036 954 l 917 817 m 186 478 q 210 341 186 407 q 278 224 235 275 l 782 799 q 565 871 681 871 q 377 817 464 871 q 238 673 290 764 q 186 478 186 582 m 565 83 q 753 138 667 83 q 892 282 840 192 q 943 478 943 372 q 917 618 943 551 q 846 738 892 685 l 342 161 q 565 83 444 83 z "},"Õ":{"ha":1126,"x_min":75,"x_max":1051,"o":"m 564 -17 q 322 51 435 -17 q 142 232 208 118 q 75 478 75 346 q 142 723 75 610 q 322 903 208 836 q 564 971 435 971 q 806 903 694 971 q 985 723 918 836 q 1051 478 1051 610 q 985 232 1051 346 q 806 51 918 118 q 564 -17 694 -17 m 564 83 q 752 138 665 83 q 890 282 839 192 q 942 478 942 372 q 890 673 942 582 q 752 817 839 764 q 564 871 665 871 q 376 817 463 871 q 237 673 289 764 q 185 478 185 582 q 237 282 185 372 q 376 138 289 192 q 564 83 463 83 m 653 1035 q 602 1047 624 1035 q 546 1086 581 1060 q 507 1117 522 1107 q 474 1126 492 1126 q 429 1104 446 1126 q 404 1032 413 1082 l 340 1042 q 474 1207 363 1207 q 524 1194 503 1207 q 581 1156 546 1182 q 619 1125 604 1135 q 653 1115 635 1115 q 697 1138 681 1115 q 722 1210 714 1160 l 786 1200 q 653 1035 764 1035 z "},"Œ":{"ha":1435,"x_min":75,"x_max":1360,"o":"m 75 464 q 142 708 75 596 q 321 888 208 821 q 564 954 433 954 l 1360 954 l 1360 851 l 785 851 l 785 538 l 1303 538 l 1303 435 l 785 435 l 785 103 l 1360 103 l 1360 0 l 564 0 q 321 60 433 0 q 142 227 208 121 q 75 464 75 333 m 185 464 q 236 276 185 360 q 374 147 288 193 q 564 100 461 100 l 675 100 l 675 854 l 564 854 q 376 801 463 854 q 237 658 289 747 q 185 464 185 568 z "},"P":{"ha":919,"x_min":108,"x_max":847,"o":"m 496 954 q 674 915 593 954 q 801 806 754 876 q 847 649 847 736 q 801 491 847 561 q 674 382 754 421 q 496 343 593 343 l 217 343 l 217 0 l 108 0 l 108 954 l 496 954 m 476 446 q 666 500 594 446 q 738 649 738 554 q 666 797 738 743 q 476 851 594 851 l 217 851 l 217 446 l 476 446 z "},"Þ":{"ha":919,"x_min":108,"x_max":847,"o":"m 219 954 l 219 786 l 496 786 q 674 747 593 786 q 801 638 754 708 q 847 481 847 568 q 801 323 847 393 q 674 214 754 253 q 496 175 593 175 l 217 175 l 217 0 l 108 0 l 108 954 l 219 954 m 476 278 q 666 332 594 278 q 738 481 738 386 q 666 629 738 575 q 476 683 594 683 l 217 683 l 217 278 l 476 278 z "},"Q":{"ha":1128,"x_min":75,"x_max":1051,"o":"m 1051 478 q 1023 315 1051 393 q 943 171 994 236 l 1046 81 l 976 0 l 868 94 q 726 13 804 42 q 564 -17 649 -17 q 322 51 435 -17 q 142 232 208 118 q 75 478 75 346 q 142 723 75 610 q 322 903 208 836 q 564 971 435 971 q 806 903 694 971 q 985 723 918 836 q 1051 478 1051 610 m 564 83 q 789 163 688 83 l 638 294 l 707 375 l 863 239 q 942 478 942 347 q 890 673 942 582 q 752 817 839 764 q 564 871 665 871 q 376 817 463 871 q 237 673 289 764 q 185 478 185 582 q 237 282 185 372 q 376 138 289 192 q 564 83 463 83 z "},"R":{"ha":919,"x_min":108,"x_max":847,"o":"m 847 649 q 809 504 847 569 q 703 397 771 439 q 550 346 635 356 l 793 0 l 669 0 l 428 343 l 217 343 l 217 0 l 108 0 l 108 954 l 496 954 q 674 915 593 954 q 801 806 754 876 q 847 649 847 736 m 217 446 l 476 446 q 666 500 594 446 q 738 649 738 554 q 666 797 738 743 q 476 851 594 851 l 217 851 l 217 446 z "},"Ŕ":{"ha":919,"x_min":108,"x_max":847,"o":"m 847 649 q 809 504 847 569 q 703 397 771 439 q 550 346 635 356 l 793 0 l 669 0 l 428 343 l 217 343 l 217 0 l 108 0 l 108 954 l 496 954 q 674 915 593 954 q 801 806 754 876 q 847 649 847 736 m 217 446 l 476 446 q 666 500 594 446 q 738 649 738 554 q 666 797 738 743 q 476 851 594 851 l 217 851 l 217 446 m 547 1236 l 657 1211 l 460 1036 l 379 1036 l 547 1236 z "},"Ř":{"ha":919,"x_min":108,"x_max":847,"o":"m 847 649 q 809 504 847 569 q 703 397 771 439 q 550 346 635 356 l 793 0 l 669 0 l 428 343 l 217 343 l 217 0 l 108 0 l 108 954 l 496 954 q 674 915 593 954 q 801 806 754 876 q 847 649 847 736 m 217 446 l 476 446 q 666 500 594 446 q 738 649 738 554 q 666 797 738 743 q 476 851 594 851 l 217 851 l 217 446 m 233 1226 l 313 1226 l 421 1107 l 531 1226 l 611 1226 l 469 1036 l 372 1036 l 233 1226 z "},"Ŗ":{"ha":919,"x_min":108,"x_max":847,"o":"m 847 649 q 809 504 847 569 q 703 397 771 439 q 550 346 635 356 l 793 0 l 669 0 l 428 343 l 217 343 l 217 0 l 108 0 l 108 954 l 496 954 q 674 915 593 954 q 801 806 754 876 q 847 649 847 736 m 217 446 l 476 446 q 666 500 594 446 q 738 649 738 554 q 666 797 738 743 q 476 851 594 851 l 217 851 l 217 446 m 358 -350 q 419 -240 407 -294 q 375 -222 393 -240 q 357 -176 357 -203 q 376 -133 357 -151 q 421 -114 394 -114 q 474 -140 454 -114 q 493 -208 493 -167 q 474 -279 493 -243 q 403 -382 456 -315 l 358 -350 z "},"S":{"ha":851,"x_min":67,"x_max":779,"o":"m 443 -15 q 67 136 221 -15 l 135 221 q 276 119 200 156 q 447 83 353 83 q 568 106 518 83 q 644 167 618 129 q 669 250 669 206 q 609 360 669 322 q 413 431 549 399 q 241 486 308 456 q 137 569 174 517 q 100 700 100 621 q 142 838 100 775 q 256 936 183 900 q 419 972 329 972 q 602 937 521 972 q 754 836 683 901 l 688 751 q 557 842 626 810 q 414 874 488 874 q 310 851 357 874 q 236 790 263 828 q 210 708 210 751 q 269 605 210 640 q 467 536 329 569 q 699 438 619 500 q 779 260 779 376 q 741 119 779 182 q 626 21 703 57 q 443 -15 550 -15 z "},"Ś":{"ha":851,"x_min":67,"x_max":779,"o":"m 443 -15 q 67 136 221 -15 l 135 221 q 276 119 200 156 q 447 83 353 83 q 568 106 518 83 q 644 167 618 129 q 669 250 669 206 q 609 360 669 322 q 413 431 549 399 q 241 486 308 456 q 137 569 174 517 q 100 700 100 621 q 142 838 100 775 q 256 936 183 900 q 419 972 329 972 q 602 937 521 972 q 754 836 683 901 l 688 751 q 557 842 626 810 q 414 874 488 874 q 310 851 357 874 q 236 790 263 828 q 210 708 210 751 q 269 605 210 640 q 467 536 329 569 q 699 438 619 500 q 779 260 779 376 q 741 119 779 182 q 626 21 703 57 q 443 -15 550 -15 m 556 1236 l 665 1211 l 468 1036 l 388 1036 l 556 1236 z "},"Š":{"ha":851,"x_min":67,"x_max":779,"o":"m 443 -15 q 67 136 221 -15 l 135 221 q 276 119 200 156 q 447 83 353 83 q 568 106 518 83 q 644 167 618 129 q 669 250 669 206 q 609 360 669 322 q 413 431 549 399 q 241 486 308 456 q 137 569 174 517 q 100 700 100 621 q 142 838 100 775 q 256 936 183 900 q 419 972 329 972 q 602 937 521 972 q 754 836 683 901 l 688 751 q 557 842 626 810 q 414 874 488 874 q 310 851 357 874 q 236 790 263 828 q 210 708 210 751 q 269 605 210 640 q 467 536 329 569 q 699 438 619 500 q 779 260 779 376 q 741 119 779 182 q 626 21 703 57 q 443 -15 550 -15 m 242 1226 l 321 1226 l 429 1107 l 539 1226 l 619 1226 l 478 1036 l 381 1036 l 242 1226 z "},"Ş":{"ha":851,"x_min":67,"x_max":779,"o":"m 779 260 q 742 122 779 183 q 633 24 706 61 q 458 -15 561 -12 l 438 -64 q 453 -62 443 -62 q 522 -88 494 -62 q 549 -154 549 -114 q 510 -235 549 -204 q 413 -267 471 -267 q 345 -256 378 -267 q 290 -228 313 -244 l 317 -169 q 407 -201 357 -201 q 457 -187 438 -201 q 476 -149 476 -172 q 463 -115 476 -128 q 422 -101 449 -101 q 375 -117 394 -101 l 353 -93 l 386 -12 q 67 136 201 3 l 135 221 q 276 119 200 156 q 447 83 353 83 q 568 106 518 83 q 644 167 618 129 q 669 250 669 206 q 609 360 669 322 q 413 431 549 399 q 241 486 308 456 q 137 569 174 517 q 100 700 100 621 q 142 838 100 775 q 256 936 183 900 q 419 972 329 972 q 602 937 521 972 q 754 836 683 901 l 688 751 q 557 842 626 810 q 414 874 488 874 q 310 851 357 874 q 236 790 263 828 q 210 708 210 751 q 269 605 210 640 q 467 536 329 569 q 699 438 619 500 q 779 260 779 376 z "},"T":{"ha":886,"x_min":68,"x_max":818,"o":"m 389 851 l 68 851 l 68 954 l 818 954 l 818 851 l 497 851 l 497 0 l 389 0 l 389 851 z "},"Ť":{"ha":886,"x_min":68,"x_max":818,"o":"m 389 851 l 68 851 l 68 954 l 818 954 l 818 851 l 497 851 l 497 0 l 389 0 l 389 851 m 256 1226 l 335 1226 l 443 1107 l 553 1226 l 633 1226 l 492 1036 l 394 1036 l 256 1226 z "},"Ţ":{"ha":886,"x_min":68,"x_max":818,"o":"m 476 0 l 450 -64 q 465 -62 456 -62 q 534 -88 507 -62 q 561 -154 561 -114 q 522 -235 561 -204 q 425 -267 483 -267 q 358 -256 390 -267 q 303 -228 325 -244 l 329 -169 q 419 -201 369 -201 q 469 -187 450 -201 q 489 -149 489 -172 q 475 -115 489 -128 q 435 -101 461 -101 q 388 -117 407 -101 l 365 -93 l 404 0 l 389 0 l 389 851 l 68 851 l 68 954 l 818 954 l 818 851 l 497 851 l 497 0 l 476 0 z "},"U":{"ha":986,"x_min":94,"x_max":892,"o":"m 493 -17 q 287 36 378 -17 q 145 183 196 89 q 94 396 94 276 l 94 954 l 203 954 l 203 396 q 240 234 203 306 q 344 122 278 163 q 493 82 410 82 q 642 122 576 82 q 746 234 708 163 q 783 396 783 306 l 783 954 l 892 954 l 892 396 q 841 183 892 276 q 699 36 790 89 q 493 -17 608 -17 z "},"Ú":{"ha":986,"x_min":94,"x_max":892,"o":"m 493 -17 q 287 36 378 -17 q 145 183 196 89 q 94 396 94 276 l 94 954 l 203 954 l 203 396 q 240 234 203 306 q 344 122 278 163 q 493 82 410 82 q 642 122 576 82 q 746 234 708 163 q 783 396 783 306 l 783 954 l 892 954 l 892 396 q 841 183 892 276 q 699 36 790 89 q 493 -17 608 -17 m 619 1236 l 729 1211 l 532 1036 l 451 1036 l 619 1236 z "},"Û":{"ha":986,"x_min":94,"x_max":892,"o":"m 493 -17 q 287 36 378 -17 q 145 183 196 89 q 94 396 94 276 l 94 954 l 203 954 l 203 396 q 240 234 203 306 q 344 122 278 163 q 493 82 410 82 q 642 122 576 82 q 746 234 708 163 q 783 396 783 306 l 783 954 l 892 954 l 892 396 q 841 183 892 276 q 699 36 790 89 q 493 -17 608 -17 m 444 1226 l 542 1226 l 683 1036 l 603 1036 l 493 1156 l 385 1036 l 306 1036 l 444 1226 z "},"Ü":{"ha":986,"x_min":94,"x_max":892,"o":"m 493 -17 q 287 36 378 -17 q 145 183 196 89 q 94 396 94 276 l 94 954 l 203 954 l 203 396 q 240 234 203 306 q 344 122 278 163 q 493 82 410 82 q 642 122 576 82 q 746 234 708 163 q 783 396 783 306 l 783 954 l 892 954 l 892 396 q 841 183 892 276 q 699 36 790 89 q 493 -17 608 -17 m 360 1065 q 315 1084 333 1065 q 296 1129 296 1103 q 315 1174 296 1154 q 360 1193 333 1193 q 405 1174 386 1193 q 424 1129 424 1154 q 405 1084 424 1103 q 360 1065 386 1065 m 626 1065 q 581 1084 600 1065 q 563 1129 563 1103 q 581 1174 563 1154 q 626 1193 600 1193 q 672 1174 653 1193 q 690 1129 690 1154 q 672 1084 690 1103 q 626 1065 653 1065 z "},"Ù":{"ha":986,"x_min":94,"x_max":892,"o":"m 493 -17 q 287 36 378 -17 q 145 183 196 89 q 94 396 94 276 l 94 954 l 203 954 l 203 396 q 240 234 203 306 q 344 122 278 163 q 493 82 410 82 q 642 122 576 82 q 746 234 708 163 q 783 396 783 306 l 783 954 l 892 954 l 892 396 q 841 183 892 276 q 699 36 790 89 q 493 -17 608 -17 m 256 1211 l 365 1236 l 533 1036 l 453 1036 l 256 1211 z "},"Ű":{"ha":986,"x_min":94,"x_max":892,"o":"m 493 -17 q 287 36 378 -17 q 145 183 196 89 q 94 396 94 276 l 94 954 l 203 954 l 203 396 q 240 234 203 306 q 344 122 278 163 q 493 82 410 82 q 642 122 576 82 q 746 234 708 163 q 783 396 783 306 l 783 954 l 892 954 l 892 396 q 841 183 892 276 q 699 36 790 89 q 493 -17 608 -17 m 479 1236 l 589 1211 l 392 1035 l 311 1035 l 479 1236 m 757 1233 l 867 1208 l 669 1035 l 589 1035 l 757 1233 z "},"Ū":{"ha":986,"x_min":94,"x_max":892,"o":"m 493 -17 q 287 36 378 -17 q 145 183 196 89 q 94 396 94 276 l 94 954 l 203 954 l 203 396 q 240 234 203 306 q 344 122 278 163 q 493 82 410 82 q 642 122 576 82 q 746 234 708 163 q 783 396 783 306 l 783 954 l 892 954 l 892 396 q 841 183 892 276 q 699 36 790 89 q 493 -17 608 -17 m 278 1138 l 708 1138 l 708 1061 l 278 1061 l 278 1138 z "},"Ų":{"ha":986,"x_min":94,"x_max":892,"o":"m 892 954 l 892 396 q 841 183 892 276 q 699 36 790 89 q 493 -17 608 -17 q 435 -39 458 -17 q 413 -96 413 -61 q 434 -154 413 -133 q 493 -175 456 -175 q 558 -149 535 -175 l 603 -217 q 486 -257 554 -257 q 376 -217 418 -257 q 335 -108 335 -178 q 349 -49 335 -76 q 385 -4 363 -21 q 174 138 253 29 q 94 396 94 246 l 94 954 l 203 954 l 203 396 q 240 234 203 306 q 344 122 278 163 q 493 82 410 82 q 642 122 576 82 q 746 234 708 163 q 783 396 783 306 l 783 954 l 892 954 z "},"Ů":{"ha":986,"x_min":94,"x_max":892,"o":"m 493 -17 q 287 36 378 -17 q 145 183 196 89 q 94 396 94 276 l 94 954 l 203 954 l 203 396 q 240 234 203 306 q 344 122 278 163 q 493 82 410 82 q 642 122 576 82 q 746 234 708 163 q 783 396 783 306 l 783 954 l 892 954 l 892 396 q 841 183 892 276 q 699 36 790 89 q 493 -17 608 -17 m 493 1054 q 392 1096 433 1054 q 350 1197 350 1138 q 392 1299 350 1257 q 493 1340 433 1340 q 594 1299 553 1340 q 636 1197 636 1257 q 594 1096 636 1138 q 493 1054 553 1054 m 493 1115 q 551 1140 526 1115 q 575 1197 575 1164 q 551 1255 575 1231 q 493 1279 526 1279 q 435 1255 460 1279 q 411 1197 411 1231 q 435 1140 411 1164 q 493 1115 460 1115 z "},"V":{"ha":1029,"x_min":35,"x_max":994,"o":"m 876 954 l 994 954 l 574 0 l 456 0 l 35 954 l 153 954 l 515 133 l 876 954 z "},"W":{"ha":1529,"x_min":65,"x_max":1464,"o":"m 65 954 l 188 954 l 451 182 l 704 954 l 825 954 l 1078 182 l 1342 954 l 1464 954 l 1138 0 l 1031 0 l 765 813 l 499 0 l 392 0 l 65 954 z "},"Ẃ":{"ha":1529,"x_min":65,"x_max":1464,"o":"m 65 954 l 188 954 l 451 182 l 704 954 l 825 954 l 1078 182 l 1342 954 l 1464 954 l 1138 0 l 1031 0 l 765 813 l 499 0 l 392 0 l 65 954 m 892 1236 l 1001 1211 l 804 1036 l 724 1036 l 892 1236 z "},"Ŵ":{"ha":1529,"x_min":65,"x_max":1464,"o":"m 65 954 l 188 954 l 451 182 l 704 954 l 825 954 l 1078 182 l 1342 954 l 1464 954 l 1138 0 l 1031 0 l 765 813 l 499 0 l 392 0 l 65 954 m 717 1226 l 814 1226 l 956 1036 l 875 1036 l 765 1156 l 657 1036 l 578 1036 l 717 1226 z "},"Ẅ":{"ha":1529,"x_min":65,"x_max":1464,"o":"m 65 954 l 188 954 l 451 182 l 704 954 l 825 954 l 1078 182 l 1342 954 l 1464 954 l 1138 0 l 1031 0 l 765 813 l 499 0 l 392 0 l 65 954 m 632 1065 q 587 1084 606 1065 q 568 1129 568 1103 q 587 1174 568 1154 q 632 1193 606 1193 q 677 1174 658 1193 q 696 1129 696 1154 q 677 1084 696 1103 q 632 1065 658 1065 m 899 1065 q 853 1084 872 1065 q 835 1129 835 1103 q 853 1174 835 1154 q 899 1193 872 1193 q 944 1174 925 1193 q 963 1129 963 1154 q 944 1084 963 1103 q 899 1065 925 1065 z "},"Ẁ":{"ha":1529,"x_min":65,"x_max":1464,"o":"m 65 954 l 188 954 l 451 182 l 704 954 l 825 954 l 1078 182 l 1342 954 l 1464 954 l 1138 0 l 1031 0 l 765 813 l 499 0 l 392 0 l 65 954 m 528 1211 l 638 1236 l 806 1036 l 725 1036 l 528 1211 z "},"X":{"ha":996,"x_min":67,"x_max":929,"o":"m 929 954 l 564 478 l 929 0 l 796 0 l 497 390 l 199 0 l 67 0 l 432 476 l 67 954 l 200 954 l 499 564 l 797 954 l 929 954 z "},"Y":{"ha":1010,"x_min":64,"x_max":946,"o":"m 449 389 l 64 954 l 199 954 l 506 492 l 815 954 l 946 954 l 563 389 l 563 0 l 449 0 l 449 389 z "},"Ý":{"ha":1010,"x_min":64,"x_max":946,"o":"m 449 389 l 64 954 l 199 954 l 506 492 l 815 954 l 946 954 l 563 389 l 563 0 l 449 0 l 449 389 m 632 1236 l 742 1211 l 544 1036 l 464 1036 l 632 1236 z "},"Ŷ":{"ha":1010,"x_min":64,"x_max":946,"o":"m 449 389 l 64 954 l 199 954 l 506 492 l 815 954 l 946 954 l 563 389 l 563 0 l 449 0 l 449 389 m 457 1226 l 554 1226 l 696 1036 l 615 1036 l 506 1156 l 397 1036 l 318 1036 l 457 1226 z "},"Ÿ":{"ha":1010,"x_min":64,"x_max":946,"o":"m 449 389 l 64 954 l 199 954 l 506 492 l 815 954 l 946 954 l 563 389 l 563 0 l 449 0 l 449 389 m 372 1065 q 327 1084 346 1065 q 308 1129 308 1103 q 327 1174 308 1154 q 372 1193 346 1193 q 417 1174 399 1193 q 436 1129 436 1154 q 417 1084 436 1103 q 372 1065 399 1065 m 639 1065 q 594 1084 613 1065 q 575 1129 575 1103 q 594 1174 575 1154 q 639 1193 613 1193 q 684 1174 665 1193 q 703 1129 703 1154 q 684 1084 703 1103 q 639 1065 665 1065 z "},"Ỳ":{"ha":1010,"x_min":64,"x_max":946,"o":"m 449 389 l 64 954 l 199 954 l 506 492 l 815 954 l 946 954 l 563 389 l 563 0 l 449 0 l 449 389 m 268 1211 l 378 1236 l 546 1036 l 465 1036 l 268 1211 z "},"Z":{"ha":876,"x_min":74,"x_max":803,"o":"m 74 86 l 649 851 l 83 851 l 83 954 l 797 954 l 797 868 l 221 103 l 803 103 l 803 0 l 74 0 l 74 86 z "},"Ź":{"ha":876,"x_min":74,"x_max":803,"o":"m 74 86 l 649 851 l 83 851 l 83 954 l 797 954 l 797 868 l 221 103 l 803 103 l 803 0 l 74 0 l 74 86 m 567 1236 l 676 1211 l 479 1036 l 399 1036 l 567 1236 z "},"Ž":{"ha":876,"x_min":74,"x_max":803,"o":"m 74 86 l 649 851 l 83 851 l 83 954 l 797 954 l 797 868 l 221 103 l 803 103 l 803 0 l 74 0 l 74 86 m 253 1226 l 332 1226 l 440 1107 l 550 1226 l 631 1226 l 489 1036 l 392 1036 l 253 1226 z "},"Ż":{"ha":876,"x_min":74,"x_max":803,"o":"m 74 86 l 649 851 l 83 851 l 83 954 l 797 954 l 797 868 l 221 103 l 803 103 l 803 0 l 74 0 l 74 86 m 440 1065 q 395 1084 414 1065 q 376 1129 376 1103 q 395 1174 376 1154 q 440 1193 414 1193 q 485 1174 467 1193 q 504 1129 504 1154 q 485 1084 504 1103 q 440 1065 467 1065 z "},"a":{"ha":735,"x_min":46,"x_max":665,"o":"m 374 735 q 591 653 517 735 q 665 438 665 572 l 665 0 l 561 0 l 561 113 q 453 17 524 51 q 308 -17 383 -17 q 119 46 193 -17 q 46 213 46 108 q 84 337 46 282 q 187 422 122 392 q 328 451 251 451 q 561 411 436 451 l 561 438 q 517 585 561 525 q 367 646 472 646 q 267 628 318 646 q 157 581 217 611 l 115 665 q 374 735 254 735 m 326 75 q 473 115 404 75 q 561 225 542 154 l 561 335 q 344 364 456 364 q 205 322 263 364 q 147 217 147 281 q 198 113 147 151 q 326 75 249 75 z "},"á":{"ha":735,"x_min":46,"x_max":665,"o":"m 374 735 q 591 653 517 735 q 665 438 665 572 l 665 0 l 561 0 l 561 113 q 453 17 524 51 q 308 -17 383 -17 q 119 46 193 -17 q 46 213 46 108 q 84 337 46 282 q 187 422 122 392 q 328 451 251 451 q 561 411 436 451 l 561 438 q 517 585 561 525 q 367 646 472 646 q 267 628 318 646 q 157 581 217 611 l 115 665 q 374 735 254 735 m 326 75 q 473 115 404 75 q 561 225 542 154 l 561 335 q 344 364 456 364 q 205 322 263 364 q 147 217 147 281 q 198 113 147 151 q 326 75 249 75 m 525 1000 l 635 975 l 438 800 l 357 800 l 525 1000 z "},"ă":{"ha":735,"x_min":46,"x_max":665,"o":"m 374 735 q 591 653 517 735 q 665 438 665 572 l 665 0 l 561 0 l 561 113 q 453 17 524 51 q 308 -17 383 -17 q 119 46 193 -17 q 46 213 46 108 q 84 337 46 282 q 187 422 122 392 q 328 451 251 451 q 561 411 436 451 l 561 438 q 517 585 561 525 q 367 646 472 646 q 267 628 318 646 q 157 581 217 611 l 115 665 q 374 735 254 735 m 326 75 q 473 115 404 75 q 561 225 542 154 l 561 335 q 344 364 456 364 q 205 322 263 364 q 147 217 147 281 q 198 113 147 151 q 326 75 249 75 m 399 818 q 290 839 343 818 q 196 901 238 860 l 261 967 q 326 924 289 939 q 399 908 363 908 q 472 924 435 908 q 536 967 508 939 l 601 901 q 508 840 561 861 q 399 818 456 818 z "},"â":{"ha":735,"x_min":46,"x_max":665,"o":"m 374 735 q 591 653 517 735 q 665 438 665 572 l 665 0 l 561 0 l 561 113 q 453 17 524 51 q 308 -17 383 -17 q 119 46 193 -17 q 46 213 46 108 q 84 337 46 282 q 187 422 122 392 q 328 451 251 451 q 561 411 436 451 l 561 438 q 517 585 561 525 q 367 646 472 646 q 267 628 318 646 q 157 581 217 611 l 115 665 q 374 735 254 735 m 326 75 q 473 115 404 75 q 561 225 542 154 l 561 335 q 344 364 456 364 q 205 322 263 364 q 147 217 147 281 q 198 113 147 151 q 326 75 249 75 m 350 990 l 447 990 l 589 800 l 508 800 l 399 919 l 290 800 l 211 800 l 350 990 z "},"ä":{"ha":735,"x_min":46,"x_max":665,"o":"m 374 735 q 591 653 517 735 q 665 438 665 572 l 665 0 l 561 0 l 561 113 q 453 17 524 51 q 308 -17 383 -17 q 119 46 193 -17 q 46 213 46 108 q 84 337 46 282 q 187 422 122 392 q 328 451 251 451 q 561 411 436 451 l 561 438 q 517 585 561 525 q 367 646 472 646 q 267 628 318 646 q 157 581 217 611 l 115 665 q 374 735 254 735 m 326 75 q 473 115 404 75 q 561 225 542 154 l 561 335 q 344 364 456 364 q 205 322 263 364 q 147 217 147 281 q 198 113 147 151 q 326 75 249 75 m 265 829 q 220 848 239 829 q 201 893 201 867 q 220 938 201 918 q 265 957 239 957 q 310 938 292 957 q 329 893 329 918 q 310 848 329 867 q 265 829 292 829 m 532 829 q 487 848 506 829 q 468 893 468 867 q 487 938 468 918 q 532 957 506 957 q 577 938 558 957 q 596 893 596 918 q 577 848 596 867 q 532 829 558 829 z "},"à":{"ha":735,"x_min":46,"x_max":665,"o":"m 374 735 q 591 653 517 735 q 665 438 665 572 l 665 0 l 561 0 l 561 113 q 453 17 524 51 q 308 -17 383 -17 q 119 46 193 -17 q 46 213 46 108 q 84 337 46 282 q 187 422 122 392 q 328 451 251 451 q 561 411 436 451 l 561 438 q 517 585 561 525 q 367 646 472 646 q 267 628 318 646 q 157 581 217 611 l 115 665 q 374 735 254 735 m 326 75 q 473 115 404 75 q 561 225 542 154 l 561 335 q 344 364 456 364 q 205 322 263 364 q 147 217 147 281 q 198 113 147 151 q 326 75 249 75 m 161 975 l 271 1000 l 439 800 l 358 800 l 161 975 z "},"ā":{"ha":735,"x_min":46,"x_max":665,"o":"m 374 735 q 591 653 517 735 q 665 438 665 572 l 665 0 l 561 0 l 561 113 q 453 17 524 51 q 308 -17 383 -17 q 119 46 193 -17 q 46 213 46 108 q 84 337 46 282 q 187 422 122 392 q 328 451 251 451 q 561 411 436 451 l 561 438 q 517 585 561 525 q 367 646 472 646 q 267 628 318 646 q 157 581 217 611 l 115 665 q 374 735 254 735 m 326 75 q 473 115 404 75 q 561 225 542 154 l 561 335 q 344 364 456 364 q 205 322 263 364 q 147 217 147 281 q 198 113 147 151 q 326 75 249 75 m 183 901 l 614 901 l 614 825 l 183 825 l 183 901 z "},"ą":{"ha":735,"x_min":46,"x_max":775,"o":"m 775 -200 q 658 -240 726 -240 q 549 -201 590 -240 q 507 -92 507 -161 q 522 -31 507 -60 q 561 15 538 -1 l 561 113 q 453 17 524 51 q 308 -17 383 -17 q 119 46 193 -17 q 46 213 46 108 q 84 337 46 282 q 187 422 122 392 q 328 451 251 451 q 561 411 436 451 l 561 438 q 517 585 561 525 q 367 646 472 646 q 267 628 318 646 q 157 581 217 611 l 115 665 q 374 735 254 735 q 591 653 517 735 q 665 438 665 572 l 665 0 q 608 -22 631 0 q 585 -79 585 -44 q 606 -137 585 -117 q 665 -158 628 -158 q 731 -132 707 -158 l 775 -200 m 326 75 q 473 115 404 75 q 561 225 542 154 l 561 335 q 344 364 456 364 q 205 322 263 364 q 147 217 147 281 q 198 113 147 151 q 326 75 249 75 z "},"å":{"ha":735,"x_min":46,"x_max":665,"o":"m 374 735 q 591 653 517 735 q 665 438 665 572 l 665 0 l 561 0 l 561 113 q 453 17 524 51 q 308 -17 383 -17 q 119 46 193 -17 q 46 213 46 108 q 84 337 46 282 q 187 422 122 392 q 328 451 251 451 q 561 411 436 451 l 561 438 q 517 585 561 525 q 367 646 472 646 q 267 628 318 646 q 157 581 217 611 l 115 665 q 374 735 254 735 m 326 75 q 473 115 404 75 q 561 225 542 154 l 561 335 q 344 364 456 364 q 205 322 263 364 q 147 217 147 281 q 198 113 147 151 q 326 75 249 75 m 399 818 q 297 860 339 818 q 256 961 256 901 q 297 1063 256 1021 q 399 1104 339 1104 q 500 1063 458 1104 q 542 961 542 1021 q 500 860 542 901 q 399 818 458 818 m 399 879 q 456 903 432 879 q 481 961 481 928 q 456 1019 481 994 q 399 1043 432 1043 q 341 1019 365 1043 q 317 961 317 994 q 341 903 317 928 q 399 879 365 879 z "},"ã":{"ha":735,"x_min":46,"x_max":665,"o":"m 374 735 q 591 653 517 735 q 665 438 665 572 l 665 0 l 561 0 l 561 113 q 453 17 524 51 q 308 -17 383 -17 q 119 46 193 -17 q 46 213 46 108 q 84 337 46 282 q 187 422 122 392 q 328 451 251 451 q 561 411 436 451 l 561 438 q 517 585 561 525 q 367 646 472 646 q 267 628 318 646 q 157 581 217 611 l 115 665 q 374 735 254 735 m 326 75 q 473 115 404 75 q 561 225 542 154 l 561 335 q 344 364 456 364 q 205 322 263 364 q 147 217 147 281 q 198 113 147 151 q 326 75 249 75 m 488 799 q 437 811 458 799 q 381 850 415 824 q 342 881 357 871 q 308 890 326 890 q 264 868 281 890 q 239 796 247 846 l 175 806 q 308 971 197 971 q 359 958 338 971 q 415 919 381 946 q 454 889 439 899 q 488 879 469 879 q 532 901 515 879 q 557 974 549 924 l 621 964 q 488 799 599 799 z "},"æ":{"ha":1300,"x_min":46,"x_max":1256,"o":"m 924 76 q 1052 101 988 76 q 1150 163 1117 126 l 1214 94 q 1085 14 1168 44 q 925 -17 1003 -17 q 754 27 835 -17 q 624 149 674 71 q 497 28 578 74 q 322 -17 417 -17 q 119 44 192 -17 q 46 213 46 104 q 84 337 46 282 q 187 422 122 392 q 328 451 251 451 q 561 411 436 451 l 561 438 q 517 585 561 525 q 367 646 472 646 q 267 628 318 646 q 157 581 217 611 l 115 665 q 374 735 254 735 q 535 697 469 735 q 633 590 601 658 q 757 697 683 658 q 915 735 831 735 q 1166 622 1076 735 q 1256 319 1256 510 l 668 319 q 749 144 679 213 q 924 76 819 76 m 919 642 q 753 578 822 642 q 669 413 683 515 l 1153 413 q 1082 578 1142 515 q 919 642 1022 642 m 561 335 q 344 364 456 364 q 205 322 263 364 q 147 217 147 281 q 198 113 147 151 q 326 75 249 75 q 473 115 404 75 q 561 225 542 154 l 561 335 z "},"b":{"ha":828,"x_min":82,"x_max":778,"o":"m 447 735 q 616 687 540 735 q 735 553 692 639 q 778 360 778 468 q 735 165 778 251 q 616 31 692 79 q 447 -17 540 -17 q 295 23 363 -17 q 186 135 228 63 l 186 0 l 82 0 l 82 971 l 186 971 l 186 583 q 295 695 228 656 q 447 735 363 735 m 428 76 q 552 113 497 76 q 638 213 607 149 q 668 360 668 278 q 638 506 668 442 q 552 606 607 569 q 428 642 497 642 q 303 606 358 642 q 217 506 247 569 q 186 360 186 442 q 217 213 186 278 q 303 113 247 149 q 428 76 358 76 z "},"c":{"ha":721,"x_min":49,"x_max":681,"o":"m 421 -17 q 236 35 322 -17 q 99 173 150 86 q 49 360 49 260 q 99 546 49 460 q 236 683 150 632 q 421 735 322 735 q 559 707 493 735 q 676 629 625 679 l 604 558 q 521 619 568 597 q 421 642 474 642 q 290 603 350 642 q 194 500 229 565 q 158 360 158 435 q 194 219 158 283 q 290 115 229 154 q 421 76 350 76 q 522 99 474 76 q 608 164 571 122 l 681 93 q 562 13 629 42 q 421 -17 494 -17 z "},"ć":{"ha":721,"x_min":49,"x_max":681,"o":"m 421 -17 q 236 35 322 -17 q 99 173 150 86 q 49 360 49 260 q 99 546 49 460 q 236 683 150 632 q 421 735 322 735 q 559 707 493 735 q 676 629 625 679 l 604 558 q 521 619 568 597 q 421 642 474 642 q 290 603 350 642 q 194 500 229 565 q 158 360 158 435 q 194 219 158 283 q 290 115 229 154 q 421 76 350 76 q 522 99 474 76 q 608 164 571 122 l 681 93 q 562 13 629 42 q 421 -17 494 -17 m 519 1000 l 629 975 l 432 800 l 351 800 l 519 1000 z "},"č":{"ha":721,"x_min":49,"x_max":681,"o":"m 421 -17 q 236 35 322 -17 q 99 173 150 86 q 49 360 49 260 q 99 546 49 460 q 236 683 150 632 q 421 735 322 735 q 559 707 493 735 q 676 629 625 679 l 604 558 q 521 619 568 597 q 421 642 474 642 q 290 603 350 642 q 194 500 229 565 q 158 360 158 435 q 194 219 158 283 q 290 115 229 154 q 421 76 350 76 q 522 99 474 76 q 608 164 571 122 l 681 93 q 562 13 629 42 q 421 -17 494 -17 m 206 990 l 285 990 l 393 871 l 503 990 l 583 990 l 442 800 l 344 800 l 206 990 z "},"ç":{"ha":721,"x_min":49,"x_max":681,"o":"m 429 -62 q 498 -88 471 -62 q 525 -154 525 -114 q 486 -235 525 -204 q 389 -267 447 -267 q 322 -256 354 -267 q 267 -228 289 -244 l 293 -169 q 383 -201 333 -201 q 433 -187 414 -201 q 453 -149 453 -172 q 439 -115 453 -128 q 399 -101 425 -101 q 351 -117 371 -101 l 329 -93 l 364 -12 q 204 55 276 1 q 90 189 132 108 q 49 360 49 269 q 99 546 49 460 q 236 683 150 632 q 421 735 322 735 q 559 707 493 735 q 676 629 625 679 l 604 558 q 521 619 568 597 q 421 642 474 642 q 290 603 350 642 q 194 500 229 565 q 158 360 158 435 q 194 219 158 283 q 290 115 229 154 q 421 76 350 76 q 522 99 474 76 q 608 164 571 122 l 681 93 q 567 15 631 43 q 433 -17 504 -14 l 414 -64 q 429 -62 419 -62 z "},"d":{"ha":829,"x_min":51,"x_max":747,"o":"m 747 971 l 747 0 l 643 0 l 643 135 q 534 23 601 63 q 382 -17 467 -17 q 213 31 289 -17 q 94 165 138 79 q 51 360 51 251 q 94 553 51 468 q 213 687 138 639 q 382 735 289 735 q 534 695 467 735 q 643 583 601 656 l 643 971 l 747 971 m 401 76 q 526 113 471 76 q 613 213 582 149 q 643 360 643 278 q 613 506 643 442 q 526 606 582 569 q 401 642 471 642 q 277 606 332 642 q 192 506 222 569 q 161 360 161 442 q 192 213 161 278 q 277 113 222 149 q 401 76 332 76 z "},"ð":{"ha":806,"x_min":50,"x_max":754,"o":"m 508 844 q 694 617 633 728 q 754 374 754 506 q 710 172 754 260 q 585 33 665 83 q 404 -17 506 -17 q 221 30 301 -17 q 95 158 140 76 q 50 344 50 240 q 92 524 50 444 q 207 647 133 603 q 374 692 281 692 q 606 579 511 692 q 418 804 549 690 l 249 729 l 211 815 l 338 871 q 225 951 263 926 l 331 994 q 432 914 388 951 l 569 975 l 607 889 l 508 844 m 404 78 q 528 111 474 78 q 614 204 583 144 q 644 340 644 264 q 615 472 644 413 q 529 565 585 531 q 400 600 474 600 q 275 567 331 600 q 189 476 219 535 q 158 343 158 417 q 190 206 158 267 q 277 112 221 146 q 404 78 333 78 z "},"ď":{"ha":978,"x_min":51,"x_max":975,"o":"m 643 971 l 747 971 l 747 0 l 643 0 l 643 135 q 534 23 601 63 q 382 -17 467 -17 q 213 31 289 -17 q 94 165 138 79 q 51 360 51 251 q 94 553 51 468 q 213 687 138 639 q 382 735 289 735 q 534 695 467 735 q 643 583 601 656 l 643 971 m 903 971 q 956 944 936 971 q 975 876 975 918 q 956 806 975 842 q 885 703 938 769 l 840 735 q 901 844 889 790 q 857 863 875 844 q 839 908 839 882 q 858 952 839 933 q 903 971 876 971 m 401 76 q 526 113 471 76 q 613 213 582 149 q 643 360 643 278 q 613 506 643 442 q 526 606 582 569 q 401 642 471 642 q 277 606 332 642 q 192 506 222 569 q 161 360 161 442 q 192 213 161 278 q 277 113 222 149 q 401 76 332 76 z "},"đ":{"ha":829,"x_min":51,"x_max":861,"o":"m 861 813 l 747 813 l 747 0 l 643 0 l 643 135 q 534 23 601 63 q 382 -17 467 -17 q 213 31 289 -17 q 94 165 138 79 q 51 360 51 251 q 94 553 51 468 q 213 687 138 639 q 382 735 289 735 q 534 695 467 735 q 643 583 601 656 l 643 813 l 431 813 l 431 882 l 643 882 l 643 971 l 747 971 l 747 882 l 861 882 l 861 813 m 401 76 q 526 113 471 76 q 613 213 582 149 q 643 360 643 278 q 613 506 643 442 q 526 606 582 569 q 401 642 471 642 q 277 606 332 642 q 192 506 222 569 q 161 360 161 442 q 192 213 161 278 q 277 113 222 149 q 401 76 332 76 z "},"e":{"ha":789,"x_min":50,"x_max":744,"o":"m 413 76 q 541 101 476 76 q 639 163 606 126 l 703 94 q 574 14 657 44 q 414 -17 492 -17 q 235 32 318 -17 q 101 167 151 81 q 50 361 50 254 q 98 551 50 465 q 227 686 146 638 q 404 735 308 735 q 655 622 565 735 q 744 319 744 510 l 157 319 q 238 144 168 213 q 413 76 308 76 m 408 642 q 242 578 311 642 q 158 413 172 515 l 642 413 q 571 578 631 515 q 408 642 511 642 z "},"é":{"ha":789,"x_min":50,"x_max":744,"o":"m 413 76 q 541 101 476 76 q 639 163 606 126 l 703 94 q 574 14 657 44 q 414 -17 492 -17 q 235 32 318 -17 q 101 167 151 81 q 50 361 50 254 q 98 551 50 465 q 227 686 146 638 q 404 735 308 735 q 655 622 565 735 q 744 319 744 510 l 157 319 q 238 144 168 213 q 413 76 308 76 m 408 642 q 242 578 311 642 q 158 413 172 515 l 642 413 q 571 578 631 515 q 408 642 511 642 m 531 1000 l 640 975 l 443 800 l 363 800 l 531 1000 z "},"ě":{"ha":789,"x_min":50,"x_max":744,"o":"m 413 76 q 541 101 476 76 q 639 163 606 126 l 703 94 q 574 14 657 44 q 414 -17 492 -17 q 235 32 318 -17 q 101 167 151 81 q 50 361 50 254 q 98 551 50 465 q 227 686 146 638 q 404 735 308 735 q 655 622 565 735 q 744 319 744 510 l 157 319 q 238 144 168 213 q 413 76 308 76 m 408 642 q 242 578 311 642 q 158 413 172 515 l 642 413 q 571 578 631 515 q 408 642 511 642 m 217 990 l 296 990 l 404 871 l 514 990 l 594 990 l 453 800 l 356 800 l 217 990 z "},"ê":{"ha":789,"x_min":50,"x_max":744,"o":"m 413 76 q 541 101 476 76 q 639 163 606 126 l 703 94 q 574 14 657 44 q 414 -17 492 -17 q 235 32 318 -17 q 101 167 151 81 q 50 361 50 254 q 98 551 50 465 q 227 686 146 638 q 404 735 308 735 q 655 622 565 735 q 744 319 744 510 l 157 319 q 238 144 168 213 q 413 76 308 76 m 408 642 q 242 578 311 642 q 158 413 172 515 l 642 413 q 571 578 631 515 q 408 642 511 642 m 356 990 l 453 990 l 594 800 l 514 800 l 404 919 l 296 800 l 217 800 l 356 990 z "},"ë":{"ha":789,"x_min":50,"x_max":744,"o":"m 413 76 q 541 101 476 76 q 639 163 606 126 l 703 94 q 574 14 657 44 q 414 -17 492 -17 q 235 32 318 -17 q 101 167 151 81 q 50 361 50 254 q 98 551 50 465 q 227 686 146 638 q 404 735 308 735 q 655 622 565 735 q 744 319 744 510 l 157 319 q 238 144 168 213 q 413 76 308 76 m 408 642 q 242 578 311 642 q 158 413 172 515 l 642 413 q 571 578 631 515 q 408 642 511 642 m 271 829 q 226 848 244 829 q 207 893 207 867 q 226 938 207 918 q 271 957 244 957 q 316 938 297 957 q 335 893 335 918 q 316 848 335 867 q 271 829 297 829 m 538 829 q 492 848 511 829 q 474 893 474 867 q 492 938 474 918 q 538 957 511 957 q 583 938 564 957 q 601 893 601 918 q 583 848 601 867 q 538 829 564 829 z "},"ė":{"ha":789,"x_min":50,"x_max":744,"o":"m 413 76 q 541 101 476 76 q 639 163 606 126 l 703 94 q 574 14 657 44 q 414 -17 492 -17 q 235 32 318 -17 q 101 167 151 81 q 50 361 50 254 q 98 551 50 465 q 227 686 146 638 q 404 735 308 735 q 655 622 565 735 q 744 319 744 510 l 157 319 q 238 144 168 213 q 413 76 308 76 m 408 642 q 242 578 311 642 q 158 413 172 515 l 642 413 q 571 578 631 515 q 408 642 511 642 m 404 829 q 359 848 378 829 q 340 893 340 867 q 359 938 340 918 q 404 957 378 957 q 449 938 431 957 q 468 893 468 918 q 449 848 468 867 q 404 829 431 829 z "},"ẹ":{"ha":833,"x_min":50,"x_max":744,"o":"m 413 76 q 541 101 476 76 q 639 163 606 126 l 703 94 q 574 14 657 44 q 414 -17 492 -17 q 235 32 318 -17 q 101 167 151 81 q 50 361 50 254 q 98 551 50 465 q 227 686 146 638 q 404 735 308 735 q 655 622 565 735 q 744 319 744 510 l 157 319 q 238 144 168 213 q 413 76 308 76 m 408 642 q 242 578 311 642 q 158 413 172 515 l 642 413 q 571 578 631 515 q 408 642 511 642 m 388 -240 q 342 -222 361 -240 q 324 -176 324 -203 q 342 -132 324 -151 q 388 -112 361 -112 q 433 -132 414 -112 q 451 -176 451 -151 q 433 -222 451 -203 q 388 -240 414 -240 z "},"è":{"ha":789,"x_min":50,"x_max":744,"o":"m 413 76 q 541 101 476 76 q 639 163 606 126 l 703 94 q 574 14 657 44 q 414 -17 492 -17 q 235 32 318 -17 q 101 167 151 81 q 50 361 50 254 q 98 551 50 465 q 227 686 146 638 q 404 735 308 735 q 655 622 565 735 q 744 319 744 510 l 157 319 q 238 144 168 213 q 413 76 308 76 m 408 642 q 242 578 311 642 q 158 413 172 515 l 642 413 q 571 578 631 515 q 408 642 511 642 m 167 975 l 276 1000 l 444 800 l 364 800 l 167 975 z "},"ē":{"ha":789,"x_min":50,"x_max":744,"o":"m 413 76 q 541 101 476 76 q 639 163 606 126 l 703 94 q 574 14 657 44 q 414 -17 492 -17 q 235 32 318 -17 q 101 167 151 81 q 50 361 50 254 q 98 551 50 465 q 227 686 146 638 q 404 735 308 735 q 655 622 565 735 q 744 319 744 510 l 157 319 q 238 144 168 213 q 413 76 308 76 m 408 642 q 242 578 311 642 q 158 413 172 515 l 642 413 q 571 578 631 515 q 408 642 511 642 m 189 901 l 619 901 l 619 825 l 189 825 l 189 901 z "},"ę":{"ha":833,"x_min":50,"x_max":744,"o":"m 529 0 q 507 -57 507 -22 q 528 -115 507 -94 q 588 -136 550 -136 q 653 -110 629 -136 l 697 -178 q 581 -218 649 -218 q 471 -178 513 -218 q 429 -69 429 -139 q 440 -15 429 -42 q 414 -17 432 -17 q 235 32 318 -17 q 101 167 151 81 q 50 361 50 254 q 98 551 50 465 q 227 686 146 638 q 404 735 308 735 q 655 622 565 735 q 744 319 744 510 l 157 319 q 238 144 168 213 q 413 76 308 76 q 541 101 476 76 q 639 163 606 126 l 703 94 q 628 38 674 63 q 529 0 582 14 m 408 642 q 242 578 311 642 q 158 413 172 515 l 642 413 q 571 578 631 515 q 408 642 511 642 z "},"ẽ":{"ha":789,"x_min":50,"x_max":744,"o":"m 413 76 q 541 101 476 76 q 639 163 606 126 l 703 94 q 574 14 657 44 q 414 -17 492 -17 q 235 32 318 -17 q 101 167 151 81 q 50 361 50 254 q 98 551 50 465 q 227 686 146 638 q 404 735 308 735 q 655 622 565 735 q 744 319 744 510 l 157 319 q 238 144 168 213 q 413 76 308 76 m 408 642 q 242 578 311 642 q 158 413 172 515 l 642 413 q 571 578 631 515 q 408 642 511 642 m 493 799 q 442 811 464 799 q 386 850 421 824 q 347 881 363 871 q 314 890 332 890 q 269 868 286 890 q 244 796 253 846 l 181 806 q 314 971 203 971 q 365 958 343 971 q 421 919 386 946 q 460 889 444 899 q 493 879 475 879 q 538 901 521 879 q 563 974 554 924 l 626 964 q 493 799 604 799 z "},"f":{"ha":478,"x_min":42,"x_max":463,"o":"m 258 718 l 435 718 l 435 625 l 258 625 l 258 0 l 154 0 l 154 625 l 42 625 l 42 718 l 154 718 l 154 817 q 203 949 154 897 q 329 1000 253 1000 q 463 954 404 1000 l 411 878 q 379 899 399 890 q 336 907 360 907 q 281 881 304 907 q 258 817 258 856 l 258 718 z "},"g":{"ha":825,"x_min":50,"x_max":746,"o":"m 746 718 l 746 76 q 701 -87 746 -15 q 576 -199 656 -158 q 393 -239 496 -239 q 231 -212 308 -239 q 103 -143 153 -186 l 149 -61 q 251 -124 190 -101 q 379 -146 313 -146 q 572 -87 503 -146 q 642 76 642 -29 l 642 193 q 533 90 600 126 q 381 53 465 53 q 210 97 285 53 q 92 218 135 140 q 50 394 50 296 q 92 571 50 493 q 210 692 135 649 q 381 735 285 735 q 533 698 465 735 q 642 594 600 661 l 642 718 l 746 718 m 400 146 q 525 178 469 146 q 611 266 581 210 q 642 394 642 322 q 611 522 642 465 q 525 610 581 578 q 400 642 469 642 q 276 610 331 642 q 190 522 221 578 q 160 394 160 465 q 190 266 160 322 q 276 178 221 210 q 400 146 331 146 z "},"ğ":{"ha":825,"x_min":50,"x_max":746,"o":"m 746 718 l 746 76 q 701 -87 746 -15 q 576 -199 656 -158 q 393 -239 496 -239 q 231 -212 308 -239 q 103 -143 153 -186 l 149 -61 q 251 -124 190 -101 q 379 -146 313 -146 q 572 -87 503 -146 q 642 76 642 -29 l 642 193 q 533 90 600 126 q 381 53 465 53 q 210 97 285 53 q 92 218 135 140 q 50 394 50 296 q 92 571 50 493 q 210 692 135 649 q 381 735 285 735 q 533 698 465 735 q 642 594 600 661 l 642 718 l 746 718 m 400 146 q 525 178 469 146 q 611 266 581 210 q 642 394 642 322 q 611 522 642 465 q 525 610 581 578 q 400 642 469 642 q 276 610 331 642 q 190 522 221 578 q 160 394 160 465 q 190 266 160 322 q 276 178 221 210 q 400 146 331 146 m 406 818 q 297 839 350 818 q 203 901 244 860 l 268 967 q 333 924 296 939 q 406 908 369 908 q 478 924 442 908 q 543 967 515 939 l 608 901 q 515 840 568 861 q 406 818 463 818 z "},"ģ":{"ha":825,"x_min":50,"x_max":746,"o":"m 406 832 q 353 858 372 832 q 333 926 333 885 q 352 997 333 961 q 424 1100 371 1033 l 468 1068 q 407 958 419 1013 q 451 940 433 958 q 469 894 469 921 q 451 851 469 869 q 406 832 432 832 m 746 718 l 746 76 q 701 -87 746 -15 q 576 -199 656 -158 q 393 -239 496 -239 q 231 -212 308 -239 q 103 -143 153 -186 l 149 -61 q 251 -124 190 -101 q 379 -146 313 -146 q 572 -87 503 -146 q 642 76 642 -29 l 642 193 q 533 90 600 126 q 381 53 465 53 q 210 97 285 53 q 92 218 135 140 q 50 394 50 296 q 92 571 50 493 q 210 692 135 649 q 381 735 285 735 q 533 698 465 735 q 642 594 600 661 l 642 718 l 746 718 m 400 146 q 525 178 469 146 q 611 266 581 210 q 642 394 642 322 q 611 522 642 465 q 525 610 581 578 q 400 642 469 642 q 276 610 331 642 q 190 522 221 578 q 160 394 160 465 q 190 266 160 322 q 276 178 221 210 q 400 146 331 146 z "},"h":{"ha":761,"x_min":82,"x_max":692,"o":"m 422 735 q 563 700 501 735 q 658 602 624 665 q 692 457 692 539 l 692 0 l 588 0 l 588 443 q 538 587 588 532 q 408 642 488 642 q 297 617 349 642 q 216 549 246 592 q 186 457 186 507 l 186 0 l 82 0 l 82 971 l 186 971 l 186 604 q 282 699 218 663 q 422 735 346 735 z "},"i":{"ha":263,"x_min":63,"x_max":200,"o":"m 79 718 l 183 718 l 183 0 l 79 0 l 79 718 m 132 849 q 83 869 103 849 q 63 918 63 890 q 83 966 63 946 q 132 986 103 986 q 180 966 160 986 q 200 918 200 946 q 180 869 200 890 q 132 849 160 849 z "},"ı":{"ha":263,"x_min":79,"x_max":183,"o":"m 79 718 l 183 718 l 183 0 l 79 0 l 79 718 z "},"í":{"ha":263,"x_min":79,"x_max":368,"o":"m 79 718 l 183 718 l 183 0 l 79 0 l 79 718 m 258 1000 l 368 975 l 171 800 l 90 800 l 258 1000 z "},"î":{"ha":263,"x_min":-56,"x_max":322,"o":"m 79 718 l 183 718 l 183 0 l 79 0 l 79 718 m 83 990 l 181 990 l 322 800 l 242 800 l 132 919 l 24 800 l -56 800 l 83 990 z "},"ï":{"ha":263,"x_min":-65,"x_max":329,"o":"m 79 718 l 183 718 l 183 0 l 79 0 l 79 718 m -1 829 q -47 848 -28 829 q -65 893 -65 867 q -47 938 -65 918 q -1 957 -28 957 q 44 938 25 957 q 63 893 63 918 q 44 848 63 867 q -1 829 25 829 m 265 829 q 220 848 239 829 q 201 893 201 867 q 220 938 201 918 q 265 957 239 957 q 310 938 292 957 q 329 893 329 918 q 310 848 329 867 q 265 829 292 829 z "},"ì":{"ha":263,"x_min":-106,"x_max":183,"o":"m 79 718 l 183 718 l 183 0 l 79 0 l 79 718 m -106 975 l 4 1000 l 172 800 l 92 800 l -106 975 z "},"ī":{"ha":263,"x_min":-83,"x_max":347,"o":"m 79 718 l 183 718 l 183 0 l 79 0 l 79 718 m -83 901 l 347 901 l 347 825 l -83 825 l -83 901 z "},"į":{"ha":263,"x_min":25,"x_max":293,"o":"m 132 829 q 87 848 106 829 q 68 893 68 867 q 87 938 68 918 q 132 957 106 957 q 177 938 158 957 q 196 893 196 918 q 177 848 196 867 q 132 829 158 829 m 293 -200 q 176 -240 244 -240 q 67 -201 108 -240 q 25 -92 25 -161 q 40 -31 25 -60 q 79 15 56 -1 l 79 718 l 183 718 l 183 0 q 126 -22 149 0 q 103 -79 103 -44 q 124 -137 103 -117 q 183 -158 146 -158 q 249 -132 225 -158 l 293 -200 z "},"j":{"ha":268,"x_min":-101,"x_max":203,"o":"m 11 -247 q -49 -241 -18 -247 q -101 -225 -81 -235 l -85 -139 q -42 -150 -68 -146 q 4 -154 -17 -154 q 60 -129 39 -154 q 82 -64 82 -104 l 82 718 l 186 718 l 186 -64 q 137 -196 186 -144 q 11 -247 88 -247 m 135 849 q 85 869 106 849 q 65 918 65 890 q 85 966 65 946 q 135 986 106 986 q 183 966 163 986 q 203 918 203 946 q 183 869 203 890 q 135 849 163 849 z "},"ȷ":{"ha":268,"x_min":-101,"x_max":186,"o":"m 11 -247 q -49 -241 -18 -247 q -101 -225 -81 -235 l -85 -139 q -42 -150 -68 -146 q 4 -154 -17 -154 q 60 -129 39 -154 q 82 -64 82 -104 l 82 718 l 186 718 l 186 -64 q 137 -196 186 -144 q 11 -247 88 -247 z "},"k":{"ha":751,"x_min":82,"x_max":713,"o":"m 82 971 l 186 971 l 186 321 l 579 718 l 713 718 l 389 389 l 694 0 l 564 0 l 315 318 l 186 190 l 186 0 l 82 0 l 82 971 z "},"ķ":{"ha":751,"x_min":82,"x_max":713,"o":"m 82 971 l 186 971 l 186 321 l 579 718 l 713 718 l 389 389 l 694 0 l 564 0 l 315 318 l 186 190 l 186 0 l 82 0 l 82 971 m 279 -350 q 340 -240 328 -294 q 296 -222 314 -240 q 278 -176 278 -203 q 297 -133 278 -151 q 342 -114 315 -114 q 394 -140 375 -114 q 414 -208 414 -167 q 395 -279 414 -243 q 324 -382 376 -315 l 279 -350 z "},"l":{"ha":268,"x_min":82,"x_max":186,"o":"m 82 971 l 186 971 l 186 0 l 82 0 l 82 971 z "},"ĺ":{"ha":268,"x_min":82,"x_max":371,"o":"m 82 971 l 186 971 l 186 0 l 82 0 l 82 971 m 261 1253 l 371 1228 l 174 1053 l 93 1053 l 261 1253 z "},"ľ":{"ha":421,"x_min":82,"x_max":421,"o":"m 82 971 l 186 971 l 186 0 l 82 0 l 82 971 m 286 735 q 347 844 335 790 q 303 863 321 844 q 285 908 285 882 q 303 952 285 933 q 349 971 322 971 q 401 944 382 971 q 421 876 421 918 q 402 806 421 842 q 331 703 383 769 l 286 735 z "},"ł":{"ha":410,"x_min":43,"x_max":367,"o":"m 367 596 l 367 492 l 257 435 l 257 0 l 153 0 l 153 382 l 43 325 l 43 429 l 153 486 l 153 971 l 257 971 l 257 539 l 367 596 z "},"m":{"ha":1181,"x_min":79,"x_max":1111,"o":"m 856 735 q 988 699 929 735 q 1078 601 1046 664 q 1111 457 1111 538 l 1111 0 l 1007 0 l 1007 443 q 960 586 1007 531 q 842 642 914 642 q 701 590 756 642 q 647 457 647 538 l 647 0 l 543 0 l 543 443 q 497 586 543 531 q 378 642 450 642 q 238 590 292 642 q 183 457 183 538 l 183 0 l 79 0 l 79 718 l 183 718 l 183 613 q 266 702 211 669 q 392 735 321 735 q 517 703 461 735 q 606 617 572 672 q 712 703 647 672 q 856 735 776 735 z "},"n":{"ha":758,"x_min":79,"x_max":689,"o":"m 419 735 q 560 700 499 735 q 655 602 621 665 q 689 457 689 539 l 689 0 l 585 0 l 585 443 q 535 587 585 532 q 406 642 485 642 q 294 617 346 642 q 213 549 243 592 q 183 457 183 507 l 183 0 l 79 0 l 79 718 l 183 718 l 183 604 q 279 699 215 663 q 419 735 343 735 z "},"ń":{"ha":758,"x_min":79,"x_max":689,"o":"m 419 735 q 560 700 499 735 q 655 602 621 665 q 689 457 689 539 l 689 0 l 585 0 l 585 443 q 535 587 585 532 q 406 642 485 642 q 294 617 346 642 q 213 549 243 592 q 183 457 183 507 l 183 0 l 79 0 l 79 718 l 183 718 l 183 604 q 279 699 215 663 q 419 735 343 735 m 510 1000 l 619 975 l 422 800 l 342 800 l 510 1000 z "},"ň":{"ha":758,"x_min":79,"x_max":689,"o":"m 419 735 q 560 700 499 735 q 655 602 621 665 q 689 457 689 539 l 689 0 l 585 0 l 585 443 q 535 587 585 532 q 406 642 485 642 q 294 617 346 642 q 213 549 243 592 q 183 457 183 507 l 183 0 l 79 0 l 79 718 l 183 718 l 183 604 q 279 699 215 663 q 419 735 343 735 m 196 990 l 275 990 l 383 871 l 493 990 l 574 990 l 432 800 l 335 800 l 196 990 z "},"ņ":{"ha":758,"x_min":79,"x_max":689,"o":"m 419 735 q 560 700 499 735 q 655 602 621 665 q 689 457 689 539 l 689 0 l 585 0 l 585 443 q 535 587 585 532 q 406 642 485 642 q 294 617 346 642 q 213 549 243 592 q 183 457 183 507 l 183 0 l 79 0 l 79 718 l 183 718 l 183 604 q 279 699 215 663 q 419 735 343 735 m 321 -350 q 382 -240 369 -294 q 338 -222 356 -240 q 319 -176 319 -203 q 338 -133 319 -151 q 383 -114 357 -114 q 436 -140 417 -114 q 456 -208 456 -167 q 437 -279 456 -243 q 365 -382 418 -315 l 321 -350 z "},"ñ":{"ha":758,"x_min":79,"x_max":689,"o":"m 419 735 q 560 700 499 735 q 655 602 621 665 q 689 457 689 539 l 689 0 l 585 0 l 585 443 q 535 587 585 532 q 406 642 485 642 q 294 617 346 642 q 213 549 243 592 q 183 457 183 507 l 183 0 l 79 0 l 79 718 l 183 718 l 183 604 q 279 699 215 663 q 419 735 343 735 m 472 799 q 422 811 443 799 q 365 850 400 824 q 326 881 342 871 q 293 890 311 890 q 249 868 265 890 q 224 796 232 846 l 160 806 q 293 971 182 971 q 344 958 322 971 q 400 919 365 946 q 439 889 424 899 q 472 879 454 879 q 517 901 500 879 q 542 974 533 924 l 606 964 q 472 799 583 799 z "},"o":{"ha":838,"x_min":49,"x_max":789,"o":"m 419 -17 q 234 34 319 -17 q 99 172 149 85 q 49 360 49 258 q 99 547 49 461 q 234 684 149 633 q 419 735 319 735 q 604 684 519 735 q 739 547 689 633 q 789 360 789 461 q 739 172 789 258 q 604 34 689 85 q 419 -17 519 -17 m 419 76 q 550 115 490 76 q 645 218 610 153 q 681 360 681 283 q 645 501 681 436 q 550 603 610 565 q 419 642 490 642 q 288 603 349 642 q 192 501 228 565 q 157 360 157 436 q 192 218 157 283 q 288 115 228 153 q 419 76 349 76 z "},"ó":{"ha":838,"x_min":49,"x_max":789,"o":"m 419 -17 q 234 34 319 -17 q 99 172 149 85 q 49 360 49 258 q 99 547 49 461 q 234 684 149 633 q 419 735 319 735 q 604 684 519 735 q 739 547 689 633 q 789 360 789 461 q 739 172 789 258 q 604 34 689 85 q 419 -17 519 -17 m 419 76 q 550 115 490 76 q 645 218 610 153 q 681 360 681 283 q 645 501 681 436 q 550 603 610 565 q 419 642 490 642 q 288 603 349 642 q 192 501 228 565 q 157 360 157 436 q 192 218 157 283 q 288 115 228 153 q 419 76 349 76 m 546 1000 l 656 975 l 458 800 l 378 800 l 546 1000 z "},"ô":{"ha":838,"x_min":49,"x_max":789,"o":"m 419 -17 q 234 34 319 -17 q 99 172 149 85 q 49 360 49 258 q 99 547 49 461 q 234 684 149 633 q 419 735 319 735 q 604 684 519 735 q 739 547 689 633 q 789 360 789 461 q 739 172 789 258 q 604 34 689 85 q 419 -17 519 -17 m 419 76 q 550 115 490 76 q 645 218 610 153 q 681 360 681 283 q 645 501 681 436 q 550 603 610 565 q 419 642 490 642 q 288 603 349 642 q 192 501 228 565 q 157 360 157 436 q 192 218 157 283 q 288 115 228 153 q 419 76 349 76 m 371 990 l 468 990 l 610 800 l 529 800 l 419 919 l 311 800 l 232 800 l 371 990 z "},"ö":{"ha":838,"x_min":49,"x_max":789,"o":"m 419 -17 q 234 34 319 -17 q 99 172 149 85 q 49 360 49 258 q 99 547 49 461 q 234 684 149 633 q 419 735 319 735 q 604 684 519 735 q 739 547 689 633 q 789 360 789 461 q 739 172 789 258 q 604 34 689 85 q 419 -17 519 -17 m 419 76 q 550 115 490 76 q 645 218 610 153 q 681 360 681 283 q 645 501 681 436 q 550 603 610 565 q 419 642 490 642 q 288 603 349 642 q 192 501 228 565 q 157 360 157 436 q 192 218 157 283 q 288 115 228 153 q 419 76 349 76 m 286 829 q 241 848 260 829 q 222 893 222 867 q 241 938 222 918 q 286 957 260 957 q 331 938 313 957 q 350 893 350 918 q 331 848 350 867 q 286 829 313 829 m 553 829 q 508 848 526 829 q 489 893 489 867 q 508 938 489 918 q 553 957 526 957 q 598 938 579 957 q 617 893 617 918 q 598 848 617 867 q 553 829 579 829 z "},"ò":{"ha":838,"x_min":49,"x_max":789,"o":"m 419 -17 q 234 34 319 -17 q 99 172 149 85 q 49 360 49 258 q 99 547 49 461 q 234 684 149 633 q 419 735 319 735 q 604 684 519 735 q 739 547 689 633 q 789 360 789 461 q 739 172 789 258 q 604 34 689 85 q 419 -17 519 -17 m 419 76 q 550 115 490 76 q 645 218 610 153 q 681 360 681 283 q 645 501 681 436 q 550 603 610 565 q 419 642 490 642 q 288 603 349 642 q 192 501 228 565 q 157 360 157 436 q 192 218 157 283 q 288 115 228 153 q 419 76 349 76 m 182 975 l 292 1000 l 460 800 l 379 800 l 182 975 z "},"ő":{"ha":838,"x_min":49,"x_max":793,"o":"m 419 -17 q 234 34 319 -17 q 99 172 149 85 q 49 360 49 258 q 99 547 49 461 q 234 684 149 633 q 419 735 319 735 q 604 684 519 735 q 739 547 689 633 q 789 360 789 461 q 739 172 789 258 q 604 34 689 85 q 419 -17 519 -17 m 419 76 q 550 115 490 76 q 645 218 610 153 q 681 360 681 283 q 645 501 681 436 q 550 603 610 565 q 419 642 490 642 q 288 603 349 642 q 192 501 228 565 q 157 360 157 436 q 192 218 157 283 q 288 115 228 153 q 419 76 349 76 m 406 1000 l 515 975 l 318 799 l 238 799 l 406 1000 m 683 997 l 793 972 l 596 799 l 515 799 l 683 997 z "},"ō":{"ha":838,"x_min":49,"x_max":789,"o":"m 419 -17 q 234 34 319 -17 q 99 172 149 85 q 49 360 49 258 q 99 547 49 461 q 234 684 149 633 q 419 735 319 735 q 604 684 519 735 q 739 547 689 633 q 789 360 789 461 q 739 172 789 258 q 604 34 689 85 q 419 -17 519 -17 m 419 76 q 550 115 490 76 q 645 218 610 153 q 681 360 681 283 q 645 501 681 436 q 550 603 610 565 q 419 642 490 642 q 288 603 349 642 q 192 501 228 565 q 157 360 157 436 q 192 218 157 283 q 288 115 228 153 q 419 76 349 76 m 204 901 l 635 901 l 635 825 l 204 825 l 204 901 z "},"ø":{"ha":849,"x_min":50,"x_max":797,"o":"m 700 604 q 767 492 743 554 q 790 360 790 429 q 740 172 790 258 q 606 34 690 85 q 421 -17 521 -17 q 221 43 314 -17 l 185 0 l 67 0 l 153 100 q 77 219 104 151 q 50 360 50 286 q 100 547 50 461 q 235 684 150 633 q 421 735 321 735 q 635 665 539 735 l 679 718 l 797 718 l 700 604 m 158 360 q 174 262 158 308 q 219 179 190 215 l 571 590 q 421 642 501 642 q 290 603 350 642 q 194 501 229 565 q 158 360 158 436 m 682 360 q 632 525 682 451 l 285 118 q 421 76 349 76 q 551 115 492 76 q 647 218 611 153 q 682 360 682 283 z "},"õ":{"ha":838,"x_min":49,"x_max":789,"o":"m 419 -17 q 234 34 319 -17 q 99 172 149 85 q 49 360 49 258 q 99 547 49 461 q 234 684 149 633 q 419 735 319 735 q 604 684 519 735 q 739 547 689 633 q 789 360 789 461 q 739 172 789 258 q 604 34 689 85 q 419 -17 519 -17 m 419 76 q 550 115 490 76 q 645 218 610 153 q 681 360 681 283 q 645 501 681 436 q 550 603 610 565 q 419 642 490 642 q 288 603 349 642 q 192 501 228 565 q 157 360 157 436 q 192 218 157 283 q 288 115 228 153 q 419 76 349 76 m 508 799 q 458 811 479 799 q 401 850 436 824 q 363 881 378 871 q 329 890 347 890 q 285 868 301 890 q 260 796 268 846 l 196 806 q 329 971 218 971 q 380 958 358 971 q 436 919 401 946 q 475 889 460 899 q 508 879 490 879 q 553 901 536 879 q 578 974 569 924 l 642 964 q 508 799 619 799 z "},"œ":{"ha":1419,"x_min":49,"x_max":1375,"o":"m 1043 76 q 1172 101 1107 76 q 1269 163 1236 126 l 1333 94 q 1205 14 1288 44 q 1044 -17 1122 -17 q 865 32 949 -17 q 733 164 782 81 q 600 32 683 81 q 419 -17 517 -17 q 234 35 319 -17 q 99 173 149 86 q 49 361 49 260 q 99 549 49 463 q 234 685 149 635 q 419 735 319 735 q 599 687 517 735 q 732 558 682 639 q 860 687 779 639 q 1035 735 940 735 q 1285 622 1196 735 q 1375 319 1375 510 l 790 319 q 870 144 801 213 q 1043 76 939 76 m 419 76 q 550 115 490 76 q 645 219 610 154 q 681 361 681 285 q 645 502 681 438 q 550 604 610 567 q 419 642 490 642 q 288 604 349 642 q 192 502 228 567 q 157 361 157 438 q 192 219 157 285 q 288 115 228 154 q 419 76 349 76 m 1039 642 q 874 579 943 642 q 792 413 806 517 l 1272 413 q 1201 578 1261 515 q 1039 642 1142 642 z "},"p":{"ha":828,"x_min":82,"x_max":778,"o":"m 447 735 q 616 687 540 735 q 735 553 692 639 q 778 360 778 468 q 735 165 778 251 q 616 31 692 79 q 447 -17 540 -17 q 295 23 363 -17 q 186 135 228 63 l 186 -239 l 82 -239 l 82 718 l 186 718 l 186 583 q 295 695 228 656 q 447 735 363 735 m 428 76 q 552 113 497 76 q 638 213 607 149 q 668 360 668 278 q 638 506 668 442 q 552 606 607 569 q 428 642 497 642 q 303 606 358 642 q 217 506 247 569 q 186 360 186 442 q 217 213 186 278 q 303 113 247 149 q 428 76 358 76 z "},"þ":{"ha":829,"x_min":83,"x_max":779,"o":"m 449 735 q 617 687 542 735 q 736 553 693 639 q 779 360 779 468 q 736 165 779 251 q 617 31 693 79 q 449 -17 542 -17 q 297 23 364 -17 q 188 135 229 63 l 188 -239 l 83 -239 l 83 971 l 188 971 l 188 583 q 297 695 229 656 q 449 735 364 735 m 429 76 q 553 113 499 76 q 639 213 608 149 q 669 360 669 278 q 639 506 669 442 q 553 606 608 569 q 429 642 499 642 q 304 606 360 642 q 218 506 249 569 q 188 360 188 442 q 218 213 188 278 q 304 113 249 149 q 429 76 360 76 z "},"q":{"ha":829,"x_min":51,"x_max":747,"o":"m 747 718 l 747 -239 l 643 -239 l 643 135 q 534 23 601 63 q 382 -17 467 -17 q 213 31 289 -17 q 94 165 138 79 q 51 360 51 251 q 94 553 51 468 q 213 687 138 639 q 382 735 289 735 q 534 695 467 735 q 643 583 601 656 l 643 718 l 747 718 m 401 76 q 526 113 471 76 q 613 213 582 149 q 643 360 643 278 q 613 506 643 442 q 526 606 582 569 q 401 642 471 642 q 277 606 332 642 q 192 506 222 569 q 161 360 161 442 q 192 213 161 278 q 277 113 222 149 q 401 76 332 76 z "},"r":{"ha":503,"x_min":79,"x_max":461,"o":"m 183 578 q 289 692 215 650 q 461 735 363 735 l 461 642 q 317 611 381 642 q 219 526 254 581 q 183 401 183 471 l 183 0 l 79 0 l 79 718 l 183 718 l 183 578 z "},"ŕ":{"ha":503,"x_min":79,"x_max":510,"o":"m 183 578 q 289 692 215 650 q 461 735 363 735 l 461 642 q 317 611 381 642 q 219 526 254 581 q 183 401 183 471 l 183 0 l 79 0 l 79 718 l 183 718 l 183 578 m 400 1000 l 510 975 l 313 800 l 232 800 l 400 1000 z "},"ř":{"ha":503,"x_min":79,"x_max":464,"o":"m 183 578 q 289 692 215 650 q 461 735 363 735 l 461 642 q 317 611 381 642 q 219 526 254 581 q 183 401 183 471 l 183 0 l 79 0 l 79 718 l 183 718 l 183 578 m 86 990 l 165 990 l 274 871 l 383 990 l 464 990 l 322 800 l 225 800 l 86 990 z "},"ŗ":{"ha":503,"x_min":79,"x_max":461,"o":"m 183 578 q 289 692 215 650 q 461 735 363 735 l 461 642 q 317 611 381 642 q 219 526 254 581 q 183 401 183 471 l 183 0 l 79 0 l 79 718 l 183 718 l 183 578 m 211 -350 q 272 -240 260 -294 q 228 -222 246 -240 q 210 -176 210 -203 q 228 -133 210 -151 q 274 -114 247 -114 q 326 -140 307 -114 q 346 -208 346 -167 q 327 -279 346 -243 q 256 -382 308 -315 l 211 -350 z "},"s":{"ha":646,"x_min":40,"x_max":600,"o":"m 338 -17 q 183 11 261 -17 q 40 90 104 39 l 94 167 q 338 76 218 76 q 452 107 408 76 q 496 189 496 138 q 472 249 496 225 q 413 288 449 274 q 315 319 378 301 q 129 402 183 357 q 75 524 75 447 q 146 677 75 619 q 326 735 217 735 q 458 713 392 735 q 583 654 525 692 l 533 574 q 326 642 426 642 q 221 614 263 642 q 179 536 179 586 q 197 486 179 506 q 251 451 215 467 q 365 411 288 436 q 489 365 442 388 q 568 303 536 343 q 600 200 600 264 q 526 43 600 103 q 338 -17 451 -17 z "},"ś":{"ha":646,"x_min":40,"x_max":600,"o":"m 338 -17 q 183 11 261 -17 q 40 90 104 39 l 94 167 q 338 76 218 76 q 452 107 408 76 q 496 189 496 138 q 472 249 496 225 q 413 288 449 274 q 315 319 378 301 q 129 402 183 357 q 75 524 75 447 q 146 677 75 619 q 326 735 217 735 q 458 713 392 735 q 583 654 525 692 l 533 574 q 326 642 426 642 q 221 614 263 642 q 179 536 179 586 q 197 486 179 506 q 251 451 215 467 q 365 411 288 436 q 489 365 442 388 q 568 303 536 343 q 600 200 600 264 q 526 43 600 103 q 338 -17 451 -17 m 453 1000 l 563 975 l 365 800 l 285 800 l 453 1000 z "},"š":{"ha":646,"x_min":40,"x_max":600,"o":"m 338 -17 q 183 11 261 -17 q 40 90 104 39 l 94 167 q 338 76 218 76 q 452 107 408 76 q 496 189 496 138 q 472 249 496 225 q 413 288 449 274 q 315 319 378 301 q 129 402 183 357 q 75 524 75 447 q 146 677 75 619 q 326 735 217 735 q 458 713 392 735 q 583 654 525 692 l 533 574 q 326 642 426 642 q 221 614 263 642 q 179 536 179 586 q 197 486 179 506 q 251 451 215 467 q 365 411 288 436 q 489 365 442 388 q 568 303 536 343 q 600 200 600 264 q 526 43 600 103 q 338 -17 451 -17 m 139 990 l 218 990 l 326 871 l 436 990 l 517 990 l 375 800 l 278 800 l 139 990 z "},"ş":{"ha":646,"x_min":40,"x_max":600,"o":"m 600 200 q 529 46 600 106 q 349 -17 458 -14 l 329 -64 q 344 -62 335 -62 q 413 -88 386 -62 q 440 -154 440 -114 q 401 -235 440 -204 q 304 -267 363 -267 q 237 -256 269 -267 q 182 -228 204 -244 l 208 -169 q 299 -201 249 -201 q 349 -187 329 -201 q 368 -149 368 -172 q 354 -115 368 -128 q 314 -101 340 -101 q 267 -117 286 -101 l 244 -93 l 279 -12 q 154 22 217 -4 q 40 90 92 49 l 94 167 q 338 76 218 76 q 452 107 408 76 q 496 189 496 138 q 472 249 496 225 q 413 288 449 274 q 315 319 378 301 q 129 402 183 357 q 75 524 75 447 q 146 677 75 619 q 326 735 217 735 q 458 713 392 735 q 583 654 525 692 l 533 574 q 326 642 426 642 q 221 614 263 642 q 179 536 179 586 q 197 486 179 506 q 251 451 215 467 q 365 411 288 436 q 489 365 442 388 q 568 303 536 343 q 600 200 600 264 z "},"ß":{"ha":747,"x_min":82,"x_max":699,"o":"m 82 731 q 119 860 82 803 q 223 950 157 918 q 372 982 289 982 q 522 950 456 982 q 624 860 588 918 q 661 731 661 803 q 628 594 661 649 q 525 507 594 539 q 656 412 614 472 q 699 261 699 351 q 663 126 699 186 q 562 33 626 67 q 415 0 497 0 l 294 0 l 294 99 l 388 99 q 533 148 476 99 q 589 275 589 197 q 533 402 589 353 q 388 451 476 451 l 294 451 l 294 550 l 371 550 q 463 573 422 550 q 528 634 504 596 q 551 717 551 672 q 501 837 551 790 q 371 883 450 883 q 241 835 292 883 q 190 713 190 788 l 190 0 l 82 0 l 82 731 z "},"t":{"ha":503,"x_min":42,"x_max":463,"o":"m 463 29 q 329 -17 404 -17 q 203 35 253 -17 q 154 167 154 86 l 154 625 l 42 625 l 42 718 l 154 718 l 154 915 l 258 915 l 258 718 l 435 718 l 435 625 l 258 625 l 258 167 q 281 102 258 128 q 336 76 304 76 q 379 85 360 76 q 411 106 399 93 l 463 29 z "},"ť":{"ha":650,"x_min":42,"x_max":647,"o":"m 575 971 q 628 944 608 971 q 647 876 647 918 q 628 806 647 842 q 557 703 610 769 l 513 735 q 574 844 561 790 q 529 863 547 844 q 511 908 511 882 q 530 952 511 933 q 575 971 549 971 m 336 76 q 379 85 360 76 q 411 106 399 93 l 463 29 q 329 -17 404 -17 q 203 35 253 -17 q 154 167 154 86 l 154 625 l 42 625 l 42 718 l 154 718 l 154 915 l 258 915 l 258 718 l 435 718 l 435 625 l 258 625 l 258 167 q 281 102 258 128 q 336 76 304 76 z "},"ţ":{"ha":503,"x_min":42,"x_max":463,"o":"m 354 -62 q 423 -88 396 -62 q 450 -154 450 -114 q 411 -235 450 -204 q 314 -267 372 -267 q 247 -256 279 -267 q 192 -228 214 -244 l 218 -169 q 308 -201 258 -201 q 358 -187 339 -201 q 378 -149 378 -172 q 364 -115 378 -128 q 324 -101 350 -101 q 276 -117 296 -101 l 254 -93 l 289 -12 q 191 50 228 1 q 154 167 154 99 l 154 625 l 42 625 l 42 718 l 154 718 l 154 915 l 258 915 l 258 718 l 435 718 l 435 625 l 258 625 l 258 167 q 281 102 258 128 q 336 76 304 76 q 379 85 360 76 q 411 106 399 93 l 463 29 q 360 -14 417 -7 l 339 -64 q 354 -62 344 -62 z "},"u":{"ha":758,"x_min":69,"x_max":679,"o":"m 679 718 l 679 0 l 575 0 l 575 114 q 479 19 543 56 q 339 -17 415 -17 q 199 18 260 -17 q 103 116 138 53 q 69 261 69 179 l 69 718 l 174 718 l 174 275 q 224 131 174 186 q 353 76 274 76 q 464 101 413 76 q 545 169 515 126 q 575 261 575 211 l 575 718 l 679 718 z "},"ú":{"ha":758,"x_min":69,"x_max":679,"o":"m 679 718 l 679 0 l 575 0 l 575 114 q 479 19 543 56 q 339 -17 415 -17 q 199 18 260 -17 q 103 116 138 53 q 69 261 69 179 l 69 718 l 174 718 l 174 275 q 224 131 174 186 q 353 76 274 76 q 464 101 413 76 q 545 169 515 126 q 575 261 575 211 l 575 718 l 679 718 m 490 1000 l 600 975 l 403 800 l 322 800 l 490 1000 z "},"û":{"ha":758,"x_min":69,"x_max":679,"o":"m 679 718 l 679 0 l 575 0 l 575 114 q 479 19 543 56 q 339 -17 415 -17 q 199 18 260 -17 q 103 116 138 53 q 69 261 69 179 l 69 718 l 174 718 l 174 275 q 224 131 174 186 q 353 76 274 76 q 464 101 413 76 q 545 169 515 126 q 575 261 575 211 l 575 718 l 679 718 m 315 990 l 413 990 l 554 800 l 474 800 l 364 919 l 256 800 l 176 800 l 315 990 z "},"ü":{"ha":758,"x_min":69,"x_max":679,"o":"m 679 718 l 679 0 l 575 0 l 575 114 q 479 19 543 56 q 339 -17 415 -17 q 199 18 260 -17 q 103 116 138 53 q 69 261 69 179 l 69 718 l 174 718 l 174 275 q 224 131 174 186 q 353 76 274 76 q 464 101 413 76 q 545 169 515 126 q 575 261 575 211 l 575 718 l 679 718 m 231 829 q 185 848 204 829 q 167 893 167 867 q 185 938 167 918 q 231 957 204 957 q 276 938 257 957 q 294 893 294 918 q 276 848 294 867 q 231 829 257 829 m 497 829 q 452 848 471 829 q 433 893 433 867 q 452 938 433 918 q 497 957 471 957 q 542 938 524 957 q 561 893 561 918 q 542 848 561 867 q 497 829 524 829 z "},"ù":{"ha":758,"x_min":69,"x_max":679,"o":"m 679 718 l 679 0 l 575 0 l 575 114 q 479 19 543 56 q 339 -17 415 -17 q 199 18 260 -17 q 103 116 138 53 q 69 261 69 179 l 69 718 l 174 718 l 174 275 q 224 131 174 186 q 353 76 274 76 q 464 101 413 76 q 545 169 515 126 q 575 261 575 211 l 575 718 l 679 718 m 126 975 l 236 1000 l 404 800 l 324 800 l 126 975 z "},"ű":{"ha":758,"x_min":69,"x_max":738,"o":"m 679 718 l 679 0 l 575 0 l 575 114 q 479 19 543 56 q 339 -17 415 -17 q 199 18 260 -17 q 103 116 138 53 q 69 261 69 179 l 69 718 l 174 718 l 174 275 q 224 131 174 186 q 353 76 274 76 q 464 101 413 76 q 545 169 515 126 q 575 261 575 211 l 575 718 l 679 718 m 350 1000 l 460 975 l 263 799 l 182 799 l 350 1000 m 628 997 l 738 972 l 540 799 l 460 799 l 628 997 z "},"ū":{"ha":758,"x_min":69,"x_max":679,"o":"m 679 718 l 679 0 l 575 0 l 575 114 q 479 19 543 56 q 339 -17 415 -17 q 199 18 260 -17 q 103 116 138 53 q 69 261 69 179 l 69 718 l 174 718 l 174 275 q 224 131 174 186 q 353 76 274 76 q 464 101 413 76 q 545 169 515 126 q 575 261 575 211 l 575 718 l 679 718 m 149 901 l 579 901 l 579 825 l 149 825 l 149 901 z "},"ų":{"ha":758,"x_min":69,"x_max":789,"o":"m 789 -200 q 672 -240 740 -240 q 563 -201 604 -240 q 521 -92 521 -161 q 536 -31 521 -60 q 575 15 551 -1 l 575 114 q 479 19 543 56 q 339 -17 415 -17 q 199 18 260 -17 q 103 116 138 53 q 69 261 69 179 l 69 718 l 174 718 l 174 275 q 224 131 174 186 q 353 76 274 76 q 464 101 413 76 q 545 169 515 126 q 575 261 575 211 l 575 718 l 679 718 l 679 0 q 622 -22 644 0 q 599 -79 599 -44 q 620 -137 599 -117 q 679 -158 642 -158 q 744 -132 721 -158 l 789 -200 z "},"ů":{"ha":758,"x_min":69,"x_max":679,"o":"m 679 718 l 679 0 l 575 0 l 575 114 q 479 19 543 56 q 339 -17 415 -17 q 199 18 260 -17 q 103 116 138 53 q 69 261 69 179 l 69 718 l 174 718 l 174 275 q 224 131 174 186 q 353 76 274 76 q 464 101 413 76 q 545 169 515 126 q 575 261 575 211 l 575 718 l 679 718 m 364 818 q 263 860 304 818 q 221 961 221 901 q 263 1063 221 1021 q 364 1104 304 1104 q 465 1063 424 1104 q 507 961 507 1021 q 465 860 507 901 q 364 818 424 818 m 364 879 q 422 903 397 879 q 446 961 446 928 q 422 1019 446 994 q 364 1043 397 1043 q 306 1019 331 1043 q 282 961 282 994 q 306 903 282 928 q 364 879 331 879 z "},"v":{"ha":785,"x_min":39,"x_max":746,"o":"m 39 718 l 156 718 l 394 122 l 629 718 l 746 718 l 444 0 l 344 0 l 39 718 z "},"w":{"ha":1143,"x_min":40,"x_max":1103,"o":"m 40 718 l 151 718 l 331 139 l 526 718 l 617 718 l 813 139 l 992 718 l 1103 718 l 861 0 l 763 0 l 572 574 l 379 0 l 281 0 l 40 718 z "},"ẃ":{"ha":1143,"x_min":40,"x_max":1103,"o":"m 40 718 l 151 718 l 331 139 l 526 718 l 617 718 l 813 139 l 992 718 l 1103 718 l 861 0 l 763 0 l 572 574 l 379 0 l 281 0 l 40 718 m 699 1000 l 808 975 l 611 800 l 531 800 l 699 1000 z "},"ŵ":{"ha":1143,"x_min":40,"x_max":1103,"o":"m 40 718 l 151 718 l 331 139 l 526 718 l 617 718 l 813 139 l 992 718 l 1103 718 l 861 0 l 763 0 l 572 574 l 379 0 l 281 0 l 40 718 m 524 990 l 621 990 l 763 800 l 682 800 l 572 919 l 464 800 l 385 800 l 524 990 z "},"ẅ":{"ha":1143,"x_min":40,"x_max":1103,"o":"m 40 718 l 151 718 l 331 139 l 526 718 l 617 718 l 813 139 l 992 718 l 1103 718 l 861 0 l 763 0 l 572 574 l 379 0 l 281 0 l 40 718 m 439 829 q 394 848 413 829 q 375 893 375 867 q 394 938 375 918 q 439 957 413 957 q 484 938 465 957 q 503 893 503 918 q 484 848 503 867 q 439 829 465 829 m 706 829 q 660 848 679 829 q 642 893 642 867 q 660 938 642 918 q 706 957 679 957 q 751 938 732 957 q 769 893 769 918 q 751 848 769 867 q 706 829 732 829 z "},"ẁ":{"ha":1143,"x_min":40,"x_max":1103,"o":"m 40 718 l 151 718 l 331 139 l 526 718 l 617 718 l 813 139 l 992 718 l 1103 718 l 861 0 l 763 0 l 572 574 l 379 0 l 281 0 l 40 718 m 335 975 l 444 1000 l 613 800 l 532 800 l 335 975 z "},"x":{"ha":754,"x_min":39,"x_max":715,"o":"m 715 0 l 593 0 l 378 286 l 161 0 l 39 0 l 317 367 l 50 718 l 172 718 l 378 447 l 582 718 l 704 718 l 439 367 l 715 0 z "},"y":{"ha":794,"x_min":39,"x_max":756,"o":"m 210 -250 q 96 -226 147 -250 l 121 -137 q 206 -156 157 -156 q 265 -142 242 -156 q 310 -92 289 -128 l 351 -3 l 39 718 l 154 718 l 406 121 l 643 718 l 756 718 l 428 -81 q 339 -209 392 -169 q 210 -250 286 -249 z "},"ý":{"ha":794,"x_min":39,"x_max":756,"o":"m 210 -250 q 96 -226 147 -250 l 121 -137 q 206 -156 157 -156 q 265 -142 242 -156 q 310 -92 289 -128 l 351 -3 l 39 718 l 154 718 l 406 121 l 643 718 l 756 718 l 428 -81 q 339 -209 392 -169 q 210 -250 286 -249 m 532 1000 l 642 975 l 444 800 l 364 800 l 532 1000 z "},"ŷ":{"ha":794,"x_min":39,"x_max":756,"o":"m 210 -250 q 96 -226 147 -250 l 121 -137 q 206 -156 157 -156 q 265 -142 242 -156 q 310 -92 289 -128 l 351 -3 l 39 718 l 154 718 l 406 121 l 643 718 l 756 718 l 428 -81 q 339 -209 392 -169 q 210 -250 286 -249 m 357 990 l 454 990 l 596 800 l 515 800 l 406 919 l 297 800 l 218 800 l 357 990 z "},"ÿ":{"ha":794,"x_min":39,"x_max":756,"o":"m 210 -250 q 96 -226 147 -250 l 121 -137 q 206 -156 157 -156 q 265 -142 242 -156 q 310 -92 289 -128 l 351 -3 l 39 718 l 154 718 l 406 121 l 643 718 l 756 718 l 428 -81 q 339 -209 392 -169 q 210 -250 286 -249 m 272 829 q 227 848 246 829 q 208 893 208 867 q 227 938 208 918 q 272 957 246 957 q 317 938 299 957 q 336 893 336 918 q 317 848 336 867 q 272 829 299 829 m 539 829 q 494 848 513 829 q 475 893 475 867 q 494 938 475 918 q 539 957 513 957 q 584 938 565 957 q 603 893 603 918 q 584 848 603 867 q 539 829 565 829 z "},"ỳ":{"ha":794,"x_min":39,"x_max":756,"o":"m 210 -250 q 96 -226 147 -250 l 121 -137 q 206 -156 157 -156 q 265 -142 242 -156 q 310 -92 289 -128 l 351 -3 l 39 718 l 154 718 l 406 121 l 643 718 l 756 718 l 428 -81 q 339 -209 392 -169 q 210 -250 286 -249 m 168 975 l 278 1000 l 446 800 l 365 800 l 168 975 z "},"z":{"ha":665,"x_min":49,"x_max":615,"o":"m 49 82 l 472 619 l 57 619 l 57 718 l 613 718 l 613 636 l 188 99 l 615 99 l 615 0 l 49 0 l 49 82 z "},"ź":{"ha":665,"x_min":49,"x_max":615,"o":"m 49 82 l 472 619 l 57 619 l 57 718 l 613 718 l 613 636 l 188 99 l 615 99 l 615 0 l 49 0 l 49 82 m 467 1000 l 576 975 l 379 800 l 299 800 l 467 1000 z "},"ž":{"ha":665,"x_min":49,"x_max":615,"o":"m 49 82 l 472 619 l 57 619 l 57 718 l 613 718 l 613 636 l 188 99 l 615 99 l 615 0 l 49 0 l 49 82 m 153 990 l 232 990 l 340 871 l 450 990 l 531 990 l 389 800 l 292 800 l 153 990 z "},"ż":{"ha":665,"x_min":49,"x_max":615,"o":"m 49 82 l 472 619 l 57 619 l 57 718 l 613 718 l 613 636 l 188 99 l 615 99 l 615 0 l 49 0 l 49 82 m 340 829 q 295 848 314 829 q 276 893 276 867 q 295 938 276 918 q 340 957 314 957 q 385 938 367 957 q 404 893 404 918 q 385 848 404 867 q 340 829 367 829 z "},".":{"ha":313,"x_min":81,"x_max":231,"o":"m 157 -17 q 103 6 125 -17 q 81 60 81 28 q 103 111 81 89 q 157 133 125 133 q 209 111 188 133 q 231 60 231 89 q 209 6 231 28 q 157 -17 188 -17 z "},",":{"ha":319,"x_min":79,"x_max":240,"o":"m 82 -146 q 154 -17 138 -82 q 101 6 124 -17 q 79 60 79 28 q 101 112 79 90 q 156 133 124 133 q 217 102 194 133 q 240 22 240 71 q 218 -63 240 -19 q 133 -185 196 -107 l 82 -146 z "},":":{"ha":306,"x_min":78,"x_max":228,"o":"m 154 560 q 100 582 122 560 q 78 636 78 604 q 100 688 78 665 q 154 710 122 710 q 206 688 185 710 q 228 636 228 665 q 206 582 228 604 q 154 560 185 560 m 154 -17 q 100 6 122 -17 q 78 60 78 28 q 100 111 78 89 q 154 133 122 133 q 206 111 185 133 q 228 60 228 89 q 206 6 228 28 q 154 -17 185 -17 z "},";":{"ha":313,"x_min":78,"x_max":239,"o":"m 156 560 q 101 582 124 560 q 79 636 79 604 q 101 688 79 665 q 156 710 124 710 q 208 688 186 710 q 229 636 229 665 q 208 582 229 604 q 156 560 186 560 m 81 -146 q 153 -17 136 -82 q 100 6 122 -17 q 78 60 78 28 q 100 112 78 90 q 154 133 122 133 q 216 102 193 133 q 239 22 239 71 q 217 -63 239 -19 q 132 -185 194 -107 l 81 -146 z "},"…":{"ha":867,"x_min":81,"x_max":786,"o":"m 157 -17 q 103 6 125 -17 q 81 60 81 28 q 103 111 81 89 q 157 133 125 133 q 209 111 188 133 q 231 60 231 89 q 209 6 231 28 q 157 -17 188 -17 m 435 -17 q 381 6 403 -17 q 358 60 358 28 q 381 111 358 89 q 435 133 403 133 q 487 111 465 133 q 508 60 508 89 q 487 6 508 28 q 435 -17 465 -17 m 713 -17 q 658 6 681 -17 q 636 60 636 28 q 658 111 636 89 q 713 133 681 133 q 765 111 743 133 q 786 60 786 89 q 765 6 786 28 q 713 -17 743 -17 z "},"!":{"ha":318,"x_min":83,"x_max":233,"o":"m 96 954 l 224 954 l 196 268 l 122 268 l 96 954 m 160 -17 q 106 6 128 -17 q 83 60 83 28 q 106 111 83 89 q 160 133 128 133 q 212 111 190 133 q 233 60 233 89 q 212 6 233 28 q 160 -17 190 -17 z "},"¡":{"ha":318,"x_min":85,"x_max":235,"o":"m 158 735 q 213 713 190 735 q 235 658 235 690 q 213 607 235 629 q 158 585 190 585 q 106 607 128 585 q 85 658 85 629 q 106 713 85 690 q 158 735 128 735 m 94 -236 l 122 450 l 196 450 l 222 -236 l 94 -236 z "},"?":{"ha":739,"x_min":64,"x_max":669,"o":"m 282 528 q 426 560 363 535 q 524 624 489 585 q 560 707 560 663 q 537 788 560 750 q 471 849 514 826 q 372 872 428 872 q 243 838 300 872 q 135 740 186 803 l 64 811 q 378 971 192 971 q 531 938 464 971 q 633 846 597 904 q 669 717 669 788 q 634 600 669 656 q 535 503 599 544 q 392 446 472 463 l 392 268 l 282 268 l 282 528 m 336 -17 q 282 6 304 -17 q 260 60 260 28 q 282 111 260 89 q 336 133 304 133 q 388 111 367 133 q 410 60 410 89 q 388 6 410 28 q 336 -17 367 -17 z "},"¿":{"ha":739,"x_min":69,"x_max":675,"o":"m 403 735 q 457 713 435 735 q 479 658 479 690 q 457 607 479 629 q 403 585 435 585 q 351 607 372 585 q 329 658 329 629 q 351 713 329 690 q 403 735 372 735 m 457 190 q 313 158 376 183 q 215 94 250 133 q 179 11 179 56 q 202 -70 179 -32 q 268 -131 225 -108 q 367 -154 311 -154 q 496 -119 439 -154 q 604 -22 553 -85 l 675 -93 q 361 -253 547 -253 q 208 -219 275 -253 q 106 -128 142 -186 q 69 1 69 -69 q 105 118 69 63 q 203 215 140 174 q 347 272 267 256 l 347 450 l 457 450 l 457 190 z "},"·":{"ha":307,"x_min":82,"x_max":225,"o":"m 154 307 q 103 328 124 307 q 82 379 82 349 q 103 430 82 410 q 154 450 124 450 q 204 430 183 450 q 225 379 225 410 q 204 328 225 349 q 154 307 183 307 z "},"•":{"ha":490,"x_min":79,"x_max":411,"o":"m 246 247 q 128 297 178 247 q 79 414 79 346 q 128 531 79 482 q 246 579 178 579 q 363 531 314 579 q 411 414 411 482 q 363 297 411 346 q 246 247 314 247 z "},"*":{"ha":553,"x_min":75,"x_max":478,"o":"m 276 522 q 252 531 263 522 q 242 553 242 540 q 247 620 242 585 q 254 664 253 656 q 264 726 258 685 q 213 686 246 714 q 125 621 157 639 q 111 617 119 617 q 94 622 103 617 q 81 636 86 626 q 75 654 75 647 q 90 681 75 672 q 192 725 129 703 l 251 749 l 192 772 q 90 817 129 794 q 75 843 75 825 q 81 861 75 850 q 94 876 86 871 q 111 881 103 881 q 125 876 119 881 q 213 811 157 858 q 264 771 246 783 q 254 833 258 813 q 247 877 253 842 q 242 944 242 913 q 252 966 242 957 q 276 975 263 975 q 301 966 290 975 q 311 944 311 957 q 306 877 311 913 q 299 833 300 842 q 289 771 294 813 q 340 811 307 783 q 428 876 396 858 q 442 881 435 881 q 458 876 450 881 q 472 861 467 871 q 478 843 478 850 q 463 817 478 825 q 361 772 424 794 l 301 749 l 361 725 q 463 681 424 703 q 478 654 478 672 q 472 636 478 647 q 458 622 467 626 q 442 617 450 617 q 428 621 433 617 q 340 686 396 639 q 289 726 307 714 q 299 664 294 685 q 306 620 300 656 q 311 553 311 585 q 301 531 311 540 q 276 522 290 522 z "},"#":{"ha":958,"x_min":67,"x_max":893,"o":"m 872 619 l 708 619 l 636 333 l 800 333 l 779 249 l 615 249 l 553 0 l 461 0 l 524 249 l 315 249 l 253 0 l 161 0 l 224 249 l 67 249 l 88 333 l 244 333 l 317 619 l 158 619 l 179 704 l 339 704 l 401 954 l 493 954 l 431 704 l 639 704 l 701 954 l 793 954 l 731 704 l 893 704 l 872 619 m 544 333 l 617 619 l 408 619 l 336 333 l 544 333 z "},"/":{"ha":681,"x_min":38,"x_max":643,"o":"m 525 1032 l 643 1032 l 156 -103 l 38 -103 l 525 1032 z "},"\\":{"ha":681,"x_min":38,"x_max":643,"o":"m 38 1032 l 156 1032 l 643 -103 l 525 -103 l 38 1032 z "},"(":{"ha":486,"x_min":75,"x_max":421,"o":"m 365 -236 q 150 36 225 -118 q 75 368 75 190 q 150 701 75 547 q 365 972 225 854 l 421 914 q 244 663 303 792 q 186 368 186 533 q 244 74 186 204 q 421 -176 303 -56 l 365 -236 z "},")":{"ha":486,"x_min":65,"x_max":411,"o":"m 65 -176 q 242 74 183 -56 q 300 368 300 204 q 242 663 300 533 q 65 914 183 792 l 121 972 q 336 701 261 854 q 411 368 411 547 q 336 36 411 190 q 121 -236 261 -118 l 65 -176 z "},"{":{"ha":558,"x_min":65,"x_max":489,"o":"m 481 -231 q 313 -192 374 -219 q 227 -117 253 -164 q 201 4 201 -69 l 201 200 q 170 300 201 269 q 65 331 139 331 l 65 407 q 170 438 139 407 q 201 539 201 469 l 201 733 q 227 855 201 808 q 313 929 253 901 q 481 968 374 957 l 489 894 q 363 864 404 882 q 307 815 322 846 q 292 728 292 785 l 293 528 q 267 426 293 464 q 189 369 242 388 q 267 312 242 350 q 293 210 293 274 l 292 11 q 308 -78 292 -47 q 365 -127 324 -110 q 489 -157 406 -144 l 481 -231 z "},"}":{"ha":558,"x_min":69,"x_max":493,"o":"m 69 -157 q 194 -127 153 -144 q 251 -78 235 -110 q 267 11 267 -47 l 265 210 q 291 312 265 274 q 369 369 317 350 q 291 426 317 388 q 265 528 265 464 l 267 728 q 251 815 267 785 q 195 864 236 846 q 69 894 154 882 l 78 968 q 245 929 185 957 q 331 855 306 901 q 357 733 357 808 l 357 539 q 388 438 357 469 q 493 407 419 407 l 493 331 q 388 300 419 331 q 357 200 357 269 l 357 4 q 331 -117 357 -69 q 245 -192 306 -164 q 78 -231 185 -219 l 69 -157 z "},"[":{"ha":507,"x_min":108,"x_max":436,"o":"m 108 1019 l 436 1019 l 436 940 l 200 940 l 200 -81 l 436 -81 l 436 -160 l 108 -160 l 108 1019 z "},"]":{"ha":507,"x_min":71,"x_max":399,"o":"m 71 -81 l 307 -81 l 307 940 l 71 940 l 71 1019 l 399 1019 l 399 -160 l 71 -160 l 71 -81 z "},"-":{"ha":493,"x_min":67,"x_max":426,"o":"m 67 428 l 426 428 l 426 326 l 67 326 l 67 428 z "},"–":{"ha":779,"x_min":67,"x_max":713,"o":"m 67 426 l 713 426 l 713 328 l 67 328 l 67 426 z "},"—":{"ha":1203,"x_min":67,"x_max":1136,"o":"m 67 426 l 1136 426 l 1136 328 l 67 328 l 67 426 z "},"_":{"ha":961,"x_min":67,"x_max":894,"o":"m 67 -104 l 894 -104 l 894 -197 l 67 -197 l 67 -104 z "},"‚":{"ha":319,"x_min":79,"x_max":240,"o":"m 82 -146 q 154 -17 138 -82 q 101 6 124 -17 q 79 60 79 28 q 101 112 79 90 q 156 133 124 133 q 217 102 194 133 q 240 22 240 71 q 218 -63 240 -19 q 133 -185 196 -107 l 82 -146 z "},"„":{"ha":597,"x_min":79,"x_max":518,"o":"m 82 -146 q 154 -17 138 -82 q 101 6 124 -17 q 79 60 79 28 q 101 112 79 90 q 156 133 124 133 q 217 102 194 133 q 240 22 240 71 q 218 -63 240 -19 q 133 -185 196 -107 l 82 -146 m 360 -146 q 432 -17 415 -82 q 379 6 401 -17 q 357 60 357 28 q 379 112 357 90 q 433 133 401 133 q 495 102 472 133 q 518 22 518 71 q 496 -63 518 -19 q 411 -185 474 -107 l 360 -146 z "},"“":{"ha":597,"x_min":79,"x_max":518,"o":"m 238 896 q 165 767 182 832 q 218 744 196 767 q 240 690 240 722 q 219 639 240 661 q 164 617 197 617 q 102 648 125 617 q 79 728 79 679 q 101 813 79 769 q 186 935 124 857 l 238 896 m 515 896 q 443 767 460 832 q 496 744 474 767 q 518 690 518 722 q 497 639 518 661 q 442 617 475 617 q 380 648 403 617 q 357 728 357 679 q 379 813 357 769 q 464 935 401 857 l 515 896 z "},"”":{"ha":597,"x_min":79,"x_max":518,"o":"m 82 658 q 154 788 138 722 q 101 810 124 788 q 79 864 79 832 q 101 916 79 894 q 156 938 124 938 q 217 906 194 938 q 240 826 240 875 q 218 741 240 785 q 133 619 196 697 l 82 658 m 360 658 q 432 788 415 722 q 379 810 401 788 q 357 864 357 832 q 379 916 357 894 q 433 938 401 938 q 495 906 472 938 q 518 826 518 875 q 496 741 518 785 q 411 619 474 697 l 360 658 z "},"‘":{"ha":319,"x_min":79,"x_max":240,"o":"m 238 896 q 165 767 182 832 q 218 744 196 767 q 240 690 240 722 q 219 639 240 661 q 164 617 197 617 q 102 648 125 617 q 79 728 79 679 q 101 813 79 769 q 186 935 124 857 l 238 896 z "},"’":{"ha":319,"x_min":79,"x_max":240,"o":"m 82 658 q 154 788 138 722 q 101 810 124 788 q 79 864 79 832 q 101 916 79 894 q 156 938 124 938 q 217 906 194 938 q 240 826 240 875 q 218 741 240 785 q 133 619 196 697 l 82 658 z "},"«":{"ha":739,"x_min":67,"x_max":669,"o":"m 67 349 l 290 622 l 394 600 l 190 350 l 394 96 l 290 72 l 67 349 m 342 349 l 565 622 l 669 600 l 465 350 l 669 96 l 565 72 l 342 349 z "},"»":{"ha":739,"x_min":69,"x_max":672,"o":"m 69 96 l 274 350 l 69 600 l 174 622 l 397 349 l 174 72 l 69 96 m 344 96 l 549 350 l 344 600 l 449 622 l 672 349 l 449 72 l 344 96 z "},"‹":{"ha":464,"x_min":67,"x_max":394,"o":"m 67 349 l 290 622 l 394 600 l 190 350 l 394 96 l 290 72 l 67 349 z "},"›":{"ha":464,"x_min":69,"x_max":397,"o":"m 69 96 l 274 350 l 69 600 l 174 622 l 397 349 l 174 72 l 69 96 z "},"\"":{"ha":556,"x_min":89,"x_max":467,"o":"m 122 596 q 113 658 113 656 q 89 874 89 815 q 108 919 89 900 q 153 938 126 938 q 198 919 179 938 q 217 874 217 900 q 193 658 217 815 q 183 596 193 656 l 122 596 m 372 596 q 363 658 363 656 q 339 874 339 815 q 358 919 339 900 q 403 938 376 938 q 448 919 429 938 q 467 874 467 900 q 443 658 467 815 q 433 596 443 656 l 372 596 z "},"'":{"ha":306,"x_min":89,"x_max":217,"o":"m 122 596 q 113 658 113 656 q 89 874 89 815 q 108 919 89 900 q 153 938 126 938 q 198 919 179 938 q 217 874 217 900 q 193 658 217 815 q 183 596 193 656 l 122 596 z "}," ":{"ha":1389,"x_min":0,"x_max":0,"o":""}," ":{"ha":694,"x_min":0,"x_max":0,"o":""}," ":{"ha":347,"x_min":0,"x_max":0,"o":""}," ":{"ha":382,"x_min":0,"x_max":0,"o":""}," ":{"ha":231,"x_min":0,"x_max":0,"o":""}," ":{"ha":463,"x_min":0,"x_max":0,"o":""},"¢":{"ha":826,"x_min":101,"x_max":733,"o":"m 733 93 q 528 -12 647 6 l 528 -103 l 419 -103 l 419 -12 q 259 55 332 1 q 144 188 186 108 q 101 360 101 268 q 144 531 101 451 q 259 664 186 611 q 419 731 332 717 l 419 818 l 528 818 l 528 731 q 729 629 642 713 l 657 558 q 528 635 601 618 l 528 83 q 661 164 604 100 l 733 93 m 211 360 q 271 181 211 260 q 419 83 331 103 l 419 635 q 271 538 331 615 q 211 360 211 460 z "},"$":{"ha":903,"x_min":93,"x_max":806,"o":"m 806 260 q 731 74 806 150 q 517 -14 656 -1 l 517 -103 l 408 -103 l 408 -12 q 93 136 226 6 l 161 221 q 408 88 274 108 l 408 438 q 196 531 265 474 q 126 700 126 589 q 163 829 126 769 q 263 926 199 889 q 408 971 328 964 l 408 1054 l 517 1054 l 517 967 q 781 836 660 949 l 714 751 q 517 865 625 838 l 517 531 q 732 433 658 494 q 806 260 806 372 m 236 708 q 278 618 236 651 q 408 558 319 585 l 408 872 q 285 815 333 863 q 236 708 236 768 m 517 86 q 649 142 603 96 q 696 250 696 189 q 653 347 696 311 q 517 411 610 383 l 517 86 z "},"€":{"ha":1135,"x_min":101,"x_max":1042,"o":"m 699 83 q 845 115 775 83 q 968 204 915 147 l 1042 129 q 885 22 974 61 q 699 -17 796 -17 q 500 28 594 -17 q 335 151 406 72 q 233 328 265 229 l 101 328 l 101 421 l 213 421 q 210 478 210 457 q 217 560 210 515 l 101 560 l 101 653 l 243 653 q 348 817 279 744 q 508 930 417 889 q 699 971 599 971 q 885 933 796 971 q 1042 825 974 894 l 968 750 q 845 839 915 807 q 699 871 775 871 q 500 810 592 871 q 361 653 408 750 l 790 653 l 790 560 l 328 560 q 319 478 319 521 q 324 421 319 449 l 790 421 l 790 328 l 349 328 q 489 151 393 219 q 699 83 585 83 z "},"£":{"ha":914,"x_min":99,"x_max":818,"o":"m 818 103 l 818 0 l 99 0 l 99 53 l 189 103 l 189 363 l 103 363 l 103 456 l 189 456 l 189 643 q 227 813 189 738 q 334 929 265 888 q 490 971 403 971 q 668 926 586 971 q 783 813 750 882 l 704 735 q 626 833 686 794 q 490 872 567 872 q 351 808 406 872 q 297 643 297 744 l 297 456 l 578 456 l 578 363 l 297 363 l 297 103 l 818 103 z "},"¥":{"ha":1065,"x_min":92,"x_max":974,"o":"m 974 954 l 636 457 l 878 457 l 878 364 l 590 364 l 590 253 l 878 253 l 878 160 l 590 160 l 590 0 l 476 0 l 476 160 l 189 160 l 189 253 l 476 253 l 476 364 l 189 364 l 189 457 l 431 457 l 92 954 l 226 954 l 533 492 l 843 954 l 974 954 z "},"+":{"ha":807,"x_min":85,"x_max":722,"o":"m 722 515 l 722 413 l 456 413 l 456 146 l 351 146 l 351 413 l 85 413 l 85 515 l 351 515 l 351 783 l 456 783 l 456 515 l 722 515 z "},"−":{"ha":853,"x_min":107,"x_max":744,"o":"m 107 515 l 744 515 l 744 413 l 107 413 l 107 515 z "},"×":{"ha":690,"x_min":83,"x_max":607,"o":"m 607 653 l 419 465 l 607 276 l 533 203 l 346 392 l 157 203 l 83 275 l 272 464 l 83 653 l 157 726 l 346 538 l 535 726 l 607 653 z "},"÷":{"ha":811,"x_min":85,"x_max":722,"o":"m 406 614 q 351 636 374 614 q 329 690 329 658 q 351 742 329 719 q 406 764 374 764 q 458 742 436 764 q 479 690 479 719 q 458 636 479 658 q 406 614 436 614 m 85 515 l 722 515 l 722 413 l 85 413 l 85 515 m 406 164 q 351 186 374 164 q 329 240 329 208 q 351 292 329 269 q 406 314 374 314 q 458 292 436 314 q 479 240 479 269 q 458 186 479 208 q 406 164 436 164 z "},"=":{"ha":874,"x_min":118,"x_max":756,"o":"m 118 668 l 756 668 l 756 565 l 118 565 l 118 668 m 118 363 l 756 363 l 756 260 l 118 260 l 118 363 z "},">":{"ha":808,"x_min":93,"x_max":725,"o":"m 93 221 l 622 478 l 93 735 l 93 832 l 725 518 l 725 436 l 93 122 l 93 221 z "},"<":{"ha":808,"x_min":83,"x_max":715,"o":"m 83 436 l 83 518 l 715 832 l 715 735 l 186 478 l 715 221 l 715 122 l 83 436 z "},"~":{"ha":633,"x_min":93,"x_max":539,"o":"m 406 417 q 355 429 376 417 q 299 468 333 442 q 260 499 275 489 q 226 508 244 508 q 182 486 199 508 q 157 414 165 464 l 93 424 q 226 589 115 589 q 277 576 256 589 q 333 538 299 564 q 372 507 357 517 q 406 497 388 497 q 450 519 433 497 q 475 592 467 542 l 539 582 q 406 417 517 417 z "},"^":{"ha":694,"x_min":82,"x_max":613,"o":"m 307 954 l 389 954 l 613 574 l 522 574 l 347 878 l 171 574 l 82 574 l 307 954 z "},"%":{"ha":1157,"x_min":85,"x_max":1072,"o":"m 306 485 q 191 517 242 485 q 113 603 140 549 q 85 721 85 657 q 113 844 85 789 q 192 931 142 899 q 307 963 243 963 q 422 931 371 963 q 500 844 472 899 q 528 724 528 789 q 499 602 528 657 q 420 516 471 547 q 306 485 369 485 m 854 954 l 960 954 l 307 0 l 201 0 l 854 954 m 307 560 q 403 606 365 560 q 440 722 440 653 q 402 840 440 793 q 306 888 364 888 q 210 841 247 888 q 172 722 172 794 q 211 606 172 653 q 307 560 250 560 m 850 -14 q 737 17 788 -14 q 658 103 686 49 q 629 225 629 158 q 658 345 629 290 q 737 432 686 400 q 851 464 788 464 q 966 432 915 464 q 1044 345 1017 400 q 1072 226 1072 290 q 1044 103 1072 158 q 965 17 1015 49 q 850 -14 914 -14 m 851 61 q 947 108 910 61 q 985 225 985 154 q 947 342 985 294 q 850 389 908 389 q 754 342 792 389 q 717 226 717 296 q 755 108 717 156 q 851 61 793 61 z "},"‰":{"ha":1675,"x_min":85,"x_max":1590,"o":"m 306 485 q 191 517 242 485 q 113 603 140 549 q 85 721 85 657 q 113 844 85 789 q 192 931 142 899 q 307 963 243 963 q 422 931 371 963 q 500 844 472 899 q 528 724 528 789 q 499 602 528 657 q 420 516 471 547 q 306 485 369 485 m 854 954 l 960 954 l 307 0 l 201 0 l 854 954 m 307 560 q 403 606 365 560 q 440 722 440 653 q 402 840 440 793 q 306 888 364 888 q 210 841 247 888 q 172 722 172 794 q 211 606 172 653 q 307 560 250 560 m 850 -14 q 737 17 788 -14 q 658 103 686 49 q 629 225 629 158 q 658 345 629 290 q 737 432 686 400 q 851 464 788 464 q 966 432 915 464 q 1044 345 1017 400 q 1072 226 1072 290 q 1044 103 1072 158 q 965 17 1015 49 q 850 -14 914 -14 m 1368 -14 q 1255 17 1306 -14 q 1176 103 1204 49 q 1147 225 1147 158 q 1176 345 1147 290 q 1255 432 1204 400 q 1369 464 1306 464 q 1484 432 1433 464 q 1563 345 1535 400 q 1590 226 1590 290 q 1562 103 1590 158 q 1483 17 1533 49 q 1368 -14 1432 -14 m 851 61 q 947 108 910 61 q 985 225 985 154 q 947 342 985 294 q 850 389 908 389 q 754 342 792 389 q 717 226 717 296 q 755 108 717 156 q 851 61 793 61 m 1369 61 q 1465 108 1428 61 q 1503 225 1503 154 q 1465 342 1503 294 q 1368 389 1426 389 q 1272 342 1310 389 q 1235 226 1235 296 q 1273 108 1235 156 q 1369 61 1311 61 z "},"@":{"ha":1276,"x_min":88,"x_max":1189,"o":"m 618 -161 q 354 -90 476 -161 q 160 101 232 -19 q 88 360 88 221 q 167 647 88 514 q 379 859 246 781 q 668 938 513 938 q 927 870 807 938 q 1118 689 1047 803 q 1189 443 1189 575 q 1153 259 1189 335 q 1060 146 1117 183 q 939 108 1003 108 q 833 140 875 108 q 779 228 790 172 q 680 141 738 174 q 554 108 622 108 q 388 175 453 108 q 324 349 324 242 q 370 523 324 443 q 492 649 417 603 q 647 696 567 696 q 765 665 717 696 q 838 583 813 633 l 856 675 l 949 668 q 925 550 925 550 q 875 265 875 297 q 900 198 875 222 q 967 174 925 174 q 1048 202 1008 174 q 1113 291 1088 231 q 1139 443 1139 351 q 1074 664 1139 561 q 901 827 1010 767 q 665 888 792 888 q 404 816 525 888 q 212 623 283 744 q 140 361 140 501 q 206 126 140 235 q 382 -48 271 17 q 621 -112 493 -112 q 776 -93 707 -112 q 921 -28 844 -74 l 946 -65 q 789 -139 865 -117 q 618 -161 713 -161 m 579 190 q 735 258 674 190 q 807 432 796 326 q 808 463 808 442 q 771 574 808 533 q 660 614 733 614 q 543 578 597 614 q 456 482 489 542 q 424 354 424 422 q 466 235 424 281 q 579 190 508 190 z "},"&":{"ha":979,"x_min":85,"x_max":900,"o":"m 801 -10 l 676 117 q 385 -17 547 -17 q 231 16 300 -17 q 124 110 163 49 q 85 253 85 171 q 138 415 85 346 q 303 532 192 483 q 242 639 261 589 q 222 742 222 689 q 253 855 222 804 q 340 935 285 906 q 465 965 396 965 q 579 935 528 965 q 660 855 631 906 q 690 744 690 804 q 632 603 690 657 q 457 504 574 550 q 675 265 542 406 q 783 479 742 364 l 874 439 q 742 197 806 288 l 900 36 l 801 -10 m 465 872 q 365 837 404 872 q 326 742 326 801 q 401 571 326 667 q 544 647 501 610 q 586 742 586 685 q 552 835 586 797 q 465 872 518 872 m 389 76 q 610 185 508 76 q 357 463 449 351 q 233 373 276 425 q 189 256 189 321 q 247 125 189 174 q 389 76 304 76 z "},"¶":{"ha":863,"x_min":85,"x_max":740,"o":"m 406 413 q 238 447 310 413 q 125 542 165 481 q 85 682 85 603 q 124 823 85 761 q 231 919 163 885 q 388 954 300 954 l 740 954 l 740 -69 l 654 -69 l 654 874 l 492 874 l 492 -69 l 406 -69 l 406 413 z "},"©":{"ha":1276,"x_min":88,"x_max":1189,"o":"m 639 -161 q 363 -87 490 -161 q 162 114 236 -12 q 88 389 88 240 q 162 663 88 538 q 363 863 236 789 q 639 938 490 938 q 914 863 788 938 q 1115 663 1040 789 q 1189 389 1189 538 q 1115 114 1189 240 q 914 -87 1040 -12 q 639 -161 788 -161 m 639 -111 q 889 -44 774 -111 q 1072 139 1004 24 q 1139 389 1139 254 q 1072 638 1139 524 q 889 820 1004 753 q 639 888 774 888 q 388 820 503 888 q 205 638 272 753 q 138 389 138 524 q 205 139 138 254 q 388 -44 272 24 q 639 -111 503 -111 m 639 13 q 454 64 540 13 q 317 202 368 115 q 267 389 267 289 q 317 575 267 489 q 454 713 368 661 q 639 764 540 764 q 777 736 711 764 q 894 658 843 708 l 822 588 q 739 649 786 626 q 639 671 692 671 q 508 633 568 671 q 412 529 447 594 q 376 389 376 464 q 412 248 376 313 q 508 144 447 183 q 639 106 568 106 q 740 128 692 106 q 826 193 789 151 l 899 122 q 780 42 847 71 q 639 13 713 13 z "},"®":{"ha":865,"x_min":90,"x_max":775,"o":"m 433 938 q 603 892 525 938 q 728 767 682 846 q 775 597 775 689 q 728 427 775 506 q 603 302 682 349 q 433 256 525 256 q 262 302 340 256 q 137 427 183 349 q 90 597 90 506 q 137 767 90 689 q 262 892 183 846 q 433 938 340 938 m 433 306 q 580 344 513 306 q 686 451 647 383 q 725 597 725 518 q 685 743 725 676 q 579 849 646 810 q 433 888 513 888 q 287 849 354 888 q 180 743 219 810 q 140 597 140 676 q 180 451 140 518 q 287 345 219 385 q 433 306 354 306 m 618 660 q 594 577 618 613 q 528 526 569 542 l 625 388 l 521 388 l 432 514 l 368 514 l 368 388 l 264 388 l 264 804 l 460 804 q 574 765 531 804 q 618 660 618 725 m 368 617 l 449 617 q 492 628 475 617 q 508 660 508 640 q 492 690 508 678 q 449 701 475 701 l 368 701 l 368 617 z "},"™":{"ha":1068,"x_min":90,"x_max":950,"o":"m 199 700 l 90 700 l 90 804 l 418 804 l 418 700 l 307 700 l 307 388 l 199 388 l 199 700 m 485 804 l 593 804 l 717 597 l 840 804 l 950 804 l 950 388 l 840 388 l 840 619 l 717 411 l 593 619 l 593 388 l 485 388 l 485 804 z "},"°":{"ha":575,"x_min":93,"x_max":482,"o":"m 288 588 q 148 642 203 588 q 93 779 93 696 q 148 917 93 863 q 288 971 203 971 q 427 917 372 971 q 482 779 482 863 q 427 642 482 696 q 288 588 372 588 m 288 674 q 359 703 331 674 q 388 779 388 733 q 359 855 388 825 q 288 885 331 885 q 216 855 244 885 q 188 779 188 825 q 216 703 188 733 q 288 674 244 674 z "},"|":{"ha":328,"x_min":122,"x_max":206,"o":"m 122 1032 l 206 1032 l 206 -103 l 122 -103 l 122 1032 z "},"̇":{"ha":0,"x_min":-192,"x_max":-54,"o":"m -122 849 q -172 869 -151 849 q -192 918 -192 890 q -172 966 -192 946 q -122 986 -151 986 q -74 966 -94 986 q -54 918 -54 946 q -74 869 -54 890 q -122 849 -94 849 z "},"̦":{"ha":0,"x_min":-189,"x_max":-53,"o":"m -187 -350 q -126 -240 -139 -294 q -171 -222 -153 -240 q -189 -176 -189 -203 q -170 -133 -189 -151 q -125 -114 -151 -114 q -72 -140 -92 -114 q -53 -208 -53 -167 q -72 -279 -53 -243 q -143 -382 -90 -315 l -187 -350 z "},"¨":{"ha":503,"x_min":54,"x_max":449,"o":"m 118 829 q 73 848 92 829 q 54 893 54 867 q 73 938 54 918 q 118 957 92 957 q 163 938 144 957 q 182 893 182 918 q 163 848 182 867 q 118 829 144 829 m 385 829 q 340 848 358 829 q 321 893 321 867 q 340 938 321 918 q 385 957 358 957 q 430 938 411 957 q 449 893 449 918 q 430 848 449 867 q 385 829 411 829 z "},"˙":{"ha":236,"x_min":54,"x_max":182,"o":"m 118 829 q 73 848 92 829 q 54 893 54 867 q 73 938 54 918 q 118 957 92 957 q 163 938 144 957 q 182 893 182 918 q 163 848 182 867 q 118 829 144 829 z "},"`":{"ha":361,"x_min":42,"x_max":319,"o":"m 42 975 l 151 1000 l 319 800 l 239 800 l 42 975 z "},"´":{"ha":361,"x_min":42,"x_max":319,"o":"m 210 1000 l 319 975 l 122 800 l 42 800 l 210 1000 z "},"˝":{"ha":640,"x_min":43,"x_max":599,"o":"m 211 1000 l 321 975 l 124 799 l 43 799 l 211 1000 m 489 997 l 599 972 l 401 799 l 321 799 l 489 997 z "},"ˆ":{"ha":464,"x_min":43,"x_max":421,"o":"m 182 990 l 279 990 l 421 800 l 340 800 l 231 919 l 122 800 l 43 800 l 182 990 z "},"ˇ":{"ha":464,"x_min":43,"x_max":421,"o":"m 43 990 l 122 990 l 231 871 l 340 990 l 421 990 l 279 800 l 182 800 l 43 990 z "},"˘":{"ha":492,"x_min":43,"x_max":449,"o":"m 246 818 q 138 839 190 818 q 43 901 85 860 l 108 967 q 173 924 136 939 q 246 908 210 908 q 319 924 282 908 q 383 967 356 939 l 449 901 q 356 840 408 861 q 246 818 303 818 z "},"˚":{"ha":392,"x_min":53,"x_max":339,"o":"m 196 818 q 94 860 136 818 q 53 961 53 901 q 94 1063 53 1021 q 196 1104 136 1104 q 297 1063 256 1104 q 339 961 339 1021 q 297 860 339 901 q 196 818 256 818 m 196 879 q 253 903 229 879 q 278 961 278 928 q 253 1019 278 994 q 196 1043 229 1043 q 138 1019 163 1043 q 114 961 114 994 q 138 903 114 928 q 196 879 163 879 z "},"˜":{"ha":550,"x_min":51,"x_max":497,"o":"m 364 799 q 313 811 335 799 q 257 850 292 824 q 218 881 233 871 q 185 890 203 890 q 140 868 157 890 q 115 796 124 846 l 51 806 q 185 971 74 971 q 235 958 214 971 q 292 919 257 946 q 331 889 315 899 q 364 879 346 879 q 408 901 392 879 q 433 974 425 924 l 497 964 q 364 799 475 799 z "},"¯":{"ha":561,"x_min":65,"x_max":496,"o":"m 65 901 l 496 901 l 496 825 l 65 825 l 65 901 z "},"¸":{"ha":351,"x_min":43,"x_max":301,"o":"m 206 -62 q 274 -88 247 -62 q 301 -154 301 -114 q 263 -235 301 -204 q 165 -267 224 -267 q 98 -256 131 -267 q 43 -228 65 -244 l 69 -169 q 160 -201 110 -201 q 210 -187 190 -201 q 229 -149 229 -172 q 215 -115 229 -128 q 175 -101 201 -101 q 128 -117 147 -101 l 106 -93 l 151 15 l 224 15 l 190 -64 q 206 -62 196 -62 z "},"˛":{"ha":364,"x_min":54,"x_max":322,"o":"m 206 -240 q 96 -201 138 -240 q 54 -92 54 -161 q 76 -19 54 -53 q 128 26 97 14 l 213 0 q 155 -22 178 0 q 132 -79 132 -44 q 153 -137 132 -117 q 213 -158 175 -158 q 278 -132 254 -158 l 322 -200 q 206 -240 274 -240 z "}}}
